<mxfile host="www.draw.io" modified="2024-03-20T21:17:50.643Z" agent="Mozilla/5.0 (Windows NT 10.0; Win64; x64) AppleWebKit/537.36 (KHTML, like Gecko) Chrome/122.0.0.0 Safari/537.36" etag="udkbOaQ0golmYMs7T3yy" version="24.0.7" type="device">
  <diagram name="Σελίδα-1" id="2p4pbvPlxwp1jPxsVXMX">
    <mxGraphModel dx="1167" dy="589" grid="1" gridSize="10" guides="1" tooltips="1" connect="1" arrows="1" fold="1" page="1" pageScale="1" pageWidth="827" pageHeight="1169" math="0" shadow="0">
      <root>
        <mxCell id="0" />
        <mxCell id="1" parent="0" />
        <mxCell id="CVc4jxOMxT3N2XDxZNE8-11" value="" style="group;labelBackgroundColor=none;rounded=0;fillColor=#dae8fc;strokeColor=#6c8ebf;strokeWidth=2;fontSize=13;fontFamily=Verdana;textShadow=0;spacingLeft=6;" parent="1" vertex="1" connectable="0">
          <mxGeometry x="480" y="80" width="240" height="120" as="geometry" />
        </mxCell>
        <mxCell id="CVc4jxOMxT3N2XDxZNE8-1" value="Επιλογή μεθόδου εργασίας" style="rounded=0;whiteSpace=wrap;html=1;labelBackgroundColor=none;fillColor=#dae8fc;strokeColor=#6c8ebf;strokeWidth=2;fontSize=13;fontFamily=Verdana;textShadow=0;spacing=2;spacingTop=0;spacingLeft=0;shadow=1;" parent="CVc4jxOMxT3N2XDxZNE8-11" vertex="1">
          <mxGeometry width="240" height="120" as="geometry" />
        </mxCell>
        <mxCell id="CVc4jxOMxT3N2XDxZNE8-2" value="4 ημ" style="rounded=0;whiteSpace=wrap;html=1;labelBackgroundColor=none;fillColor=#dae8fc;strokeColor=#6c8ebf;strokeWidth=2;fontSize=13;fontFamily=Verdana;" parent="CVc4jxOMxT3N2XDxZNE8-11" vertex="1">
          <mxGeometry x="180" width="60" height="40" as="geometry" />
        </mxCell>
        <mxCell id="CVc4jxOMxT3N2XDxZNE8-6" value="10/03/2024" style="rounded=0;whiteSpace=wrap;html=1;labelBackgroundColor=none;fillColor=#dae8fc;strokeColor=#6c8ebf;strokeWidth=2;fontSize=13;fontFamily=Verdana;" parent="CVc4jxOMxT3N2XDxZNE8-11" vertex="1">
          <mxGeometry y="80" width="120" height="40" as="geometry" />
        </mxCell>
        <mxCell id="CVc4jxOMxT3N2XDxZNE8-8" value="001" style="rounded=0;whiteSpace=wrap;html=1;labelBackgroundColor=none;fillColor=#dae8fc;strokeColor=#6c8ebf;strokeWidth=2;fontSize=13;fontFamily=Verdana;" parent="CVc4jxOMxT3N2XDxZNE8-11" vertex="1">
          <mxGeometry width="60" height="40" as="geometry" />
        </mxCell>
        <mxCell id="CVc4jxOMxT3N2XDxZNE8-9" value="1 ημ" style="rounded=0;whiteSpace=wrap;html=1;labelBackgroundColor=none;fillColor=#dae8fc;strokeColor=#6c8ebf;strokeWidth=2;fontSize=13;fontFamily=Verdana;" parent="CVc4jxOMxT3N2XDxZNE8-11" vertex="1">
          <mxGeometry x="60" width="60" height="40" as="geometry" />
        </mxCell>
        <mxCell id="CVc4jxOMxT3N2XDxZNE8-10" value="2 ημ" style="rounded=0;whiteSpace=wrap;html=1;labelBackgroundColor=none;fillColor=#dae8fc;strokeColor=#6c8ebf;strokeWidth=2;fontSize=13;fontFamily=Verdana;" parent="CVc4jxOMxT3N2XDxZNE8-11" vertex="1">
          <mxGeometry x="120" width="60" height="40" as="geometry" />
        </mxCell>
        <mxCell id="CVc4jxOMxT3N2XDxZNE8-7" value="11/03/2024" style="rounded=0;whiteSpace=wrap;html=1;labelBackgroundColor=none;fillColor=#dae8fc;strokeColor=#6c8ebf;strokeWidth=2;fontSize=13;fontFamily=Verdana;" parent="CVc4jxOMxT3N2XDxZNE8-11" vertex="1">
          <mxGeometry x="120" y="80" width="120" height="40" as="geometry" />
        </mxCell>
        <mxCell id="9AGvx3cEIuA70uI9kTlu-1" value="" style="group;labelBackgroundColor=none;rounded=0;fillColor=#dae8fc;strokeColor=#6c8ebf;strokeWidth=2;fontSize=13;fontFamily=Verdana;textShadow=0;spacingLeft=6;" parent="1" vertex="1" connectable="0">
          <mxGeometry x="480" y="235" width="240" height="120" as="geometry" />
        </mxCell>
        <mxCell id="9AGvx3cEIuA70uI9kTlu-2" value="Επιλογή Ιδέας" style="rounded=0;whiteSpace=wrap;html=1;labelBackgroundColor=none;fillColor=#dae8fc;strokeColor=#6c8ebf;strokeWidth=2;fontSize=13;fontFamily=Verdana;textShadow=0;spacing=2;spacingTop=0;spacingLeft=0;shadow=1;" parent="9AGvx3cEIuA70uI9kTlu-1" vertex="1">
          <mxGeometry width="240" height="120" as="geometry" />
        </mxCell>
        <mxCell id="9AGvx3cEIuA70uI9kTlu-3" value="10 ημ" style="rounded=0;whiteSpace=wrap;html=1;labelBackgroundColor=none;fillColor=#dae8fc;strokeColor=#6c8ebf;strokeWidth=2;fontSize=13;fontFamily=Verdana;" parent="9AGvx3cEIuA70uI9kTlu-1" vertex="1">
          <mxGeometry x="180" width="60" height="40" as="geometry" />
        </mxCell>
        <mxCell id="9AGvx3cEIuA70uI9kTlu-4" value="12/03/2024" style="rounded=0;whiteSpace=wrap;html=1;labelBackgroundColor=none;fillColor=#dae8fc;strokeColor=#6c8ebf;strokeWidth=2;fontSize=13;fontFamily=Verdana;" parent="9AGvx3cEIuA70uI9kTlu-1" vertex="1">
          <mxGeometry y="80" width="120" height="40" as="geometry" />
        </mxCell>
        <mxCell id="9AGvx3cEIuA70uI9kTlu-5" value="002" style="rounded=0;whiteSpace=wrap;html=1;labelBackgroundColor=none;fillColor=#dae8fc;strokeColor=#6c8ebf;strokeWidth=2;fontSize=13;fontFamily=Verdana;" parent="9AGvx3cEIuA70uI9kTlu-1" vertex="1">
          <mxGeometry width="60" height="40" as="geometry" />
        </mxCell>
        <mxCell id="9AGvx3cEIuA70uI9kTlu-6" value="2 ημ" style="rounded=0;whiteSpace=wrap;html=1;labelBackgroundColor=none;fillColor=#dae8fc;strokeColor=#6c8ebf;strokeWidth=2;fontSize=13;fontFamily=Verdana;" parent="9AGvx3cEIuA70uI9kTlu-1" vertex="1">
          <mxGeometry x="60" width="60" height="40" as="geometry" />
        </mxCell>
        <mxCell id="9AGvx3cEIuA70uI9kTlu-7" value="5 ημ" style="rounded=0;whiteSpace=wrap;html=1;labelBackgroundColor=none;fillColor=#dae8fc;strokeColor=#6c8ebf;strokeWidth=2;fontSize=13;fontFamily=Verdana;" parent="9AGvx3cEIuA70uI9kTlu-1" vertex="1">
          <mxGeometry x="120" width="60" height="40" as="geometry" />
        </mxCell>
        <mxCell id="9AGvx3cEIuA70uI9kTlu-8" value="16/03/2024" style="rounded=0;whiteSpace=wrap;html=1;labelBackgroundColor=none;fillColor=#dae8fc;strokeColor=#6c8ebf;strokeWidth=2;fontSize=13;fontFamily=Verdana;" parent="9AGvx3cEIuA70uI9kTlu-1" vertex="1">
          <mxGeometry x="120" y="80" width="120" height="40" as="geometry" />
        </mxCell>
        <mxCell id="9AGvx3cEIuA70uI9kTlu-10" value="" style="group;labelBackgroundColor=none;rounded=0;fillColor=#dae8fc;strokeColor=#6c8ebf;strokeWidth=2;fontSize=13;fontFamily=Verdana;textShadow=0;spacingLeft=6;" parent="1" vertex="1" connectable="0">
          <mxGeometry x="480" y="400" width="240" height="120" as="geometry" />
        </mxCell>
        <mxCell id="9AGvx3cEIuA70uI9kTlu-11" value="Αρχική περιγραφή έργου" style="rounded=0;whiteSpace=wrap;html=1;labelBackgroundColor=none;fillColor=#dae8fc;strokeColor=#6c8ebf;strokeWidth=2;fontSize=13;fontFamily=Verdana;textShadow=0;spacing=2;spacingTop=0;spacingLeft=0;shadow=1;" parent="9AGvx3cEIuA70uI9kTlu-10" vertex="1">
          <mxGeometry width="240" height="120" as="geometry" />
        </mxCell>
        <mxCell id="9AGvx3cEIuA70uI9kTlu-12" value="3 ημ" style="rounded=0;whiteSpace=wrap;html=1;labelBackgroundColor=none;fillColor=#dae8fc;strokeColor=#6c8ebf;strokeWidth=2;fontSize=13;fontFamily=Verdana;" parent="9AGvx3cEIuA70uI9kTlu-10" vertex="1">
          <mxGeometry x="180" width="60" height="40" as="geometry" />
        </mxCell>
        <mxCell id="9AGvx3cEIuA70uI9kTlu-13" value="17/03/2024" style="rounded=0;whiteSpace=wrap;html=1;labelBackgroundColor=none;fillColor=#dae8fc;strokeColor=#6c8ebf;strokeWidth=2;fontSize=13;fontFamily=Verdana;" parent="9AGvx3cEIuA70uI9kTlu-10" vertex="1">
          <mxGeometry y="80" width="120" height="40" as="geometry" />
        </mxCell>
        <mxCell id="9AGvx3cEIuA70uI9kTlu-14" value="003" style="rounded=0;whiteSpace=wrap;html=1;labelBackgroundColor=none;fillColor=#dae8fc;strokeColor=#6c8ebf;strokeWidth=2;fontSize=13;fontFamily=Verdana;" parent="9AGvx3cEIuA70uI9kTlu-10" vertex="1">
          <mxGeometry width="60" height="40" as="geometry" />
        </mxCell>
        <mxCell id="9AGvx3cEIuA70uI9kTlu-15" value="1 ημ" style="rounded=0;whiteSpace=wrap;html=1;labelBackgroundColor=none;fillColor=#dae8fc;strokeColor=#6c8ebf;strokeWidth=2;fontSize=13;fontFamily=Verdana;" parent="9AGvx3cEIuA70uI9kTlu-10" vertex="1">
          <mxGeometry x="60" width="60" height="40" as="geometry" />
        </mxCell>
        <mxCell id="9AGvx3cEIuA70uI9kTlu-16" value="2 ημ" style="rounded=0;whiteSpace=wrap;html=1;labelBackgroundColor=none;fillColor=#dae8fc;strokeColor=#6c8ebf;strokeWidth=2;fontSize=13;fontFamily=Verdana;" parent="9AGvx3cEIuA70uI9kTlu-10" vertex="1">
          <mxGeometry x="120" width="60" height="40" as="geometry" />
        </mxCell>
        <mxCell id="9AGvx3cEIuA70uI9kTlu-17" value="18/03/2024" style="rounded=0;whiteSpace=wrap;html=1;labelBackgroundColor=none;fillColor=#dae8fc;strokeColor=#6c8ebf;strokeWidth=2;fontSize=13;fontFamily=Verdana;" parent="9AGvx3cEIuA70uI9kTlu-10" vertex="1">
          <mxGeometry x="120" y="80" width="120" height="40" as="geometry" />
        </mxCell>
        <mxCell id="JGt1HLMFAKdLXa0e5AWq-24" style="edgeStyle=orthogonalEdgeStyle;rounded=0;orthogonalLoop=1;jettySize=auto;html=1;exitX=1;exitY=0.5;exitDx=0;exitDy=0;entryX=1;entryY=0.5;entryDx=0;entryDy=0;endArrow=classic;endFill=1;" parent="1" source="9AGvx3cEIuA70uI9kTlu-22" target="JGt1HLMFAKdLXa0e5AWq-10" edge="1">
          <mxGeometry relative="1" as="geometry">
            <Array as="points">
              <mxPoint x="1870" y="460" />
              <mxPoint x="1870" y="741" />
            </Array>
          </mxGeometry>
        </mxCell>
        <mxCell id="9AGvx3cEIuA70uI9kTlu-22" value="&lt;font style=&quot;font-size: 13px;&quot; face=&quot;Verdana&quot;&gt;1η&lt;/font&gt;&lt;div style=&quot;font-size: 13px;&quot;&gt;&lt;font face=&quot;Verdana&quot; style=&quot;font-size: 13px;&quot;&gt;Παράδοση&lt;/font&gt;&lt;/div&gt;" style="rhombus;whiteSpace=wrap;html=1;fillColor=#fff2cc;strokeColor=#d6b656;" parent="1" vertex="1">
          <mxGeometry x="1690" y="405" width="110" height="110" as="geometry" />
        </mxCell>
        <mxCell id="9AGvx3cEIuA70uI9kTlu-24" value="" style="group;labelBackgroundColor=none;rounded=0;fillColor=#dae8fc;strokeColor=#6c8ebf;strokeWidth=2;fontSize=13;fontFamily=Verdana;textShadow=0;spacingLeft=6;" parent="1" vertex="1" connectable="0">
          <mxGeometry x="800" y="400" width="240" height="120" as="geometry" />
        </mxCell>
        <mxCell id="9AGvx3cEIuA70uI9kTlu-25" value="Domain-model-v0.1" style="rounded=0;whiteSpace=wrap;html=1;labelBackgroundColor=none;fillColor=#dae8fc;strokeColor=#6c8ebf;strokeWidth=2;fontSize=13;fontFamily=Verdana;textShadow=0;spacing=2;spacingTop=0;spacingLeft=0;shadow=1;" parent="9AGvx3cEIuA70uI9kTlu-24" vertex="1">
          <mxGeometry width="240" height="120" as="geometry" />
        </mxCell>
        <mxCell id="9AGvx3cEIuA70uI9kTlu-26" value="5 ημ" style="rounded=0;whiteSpace=wrap;html=1;labelBackgroundColor=none;fillColor=#dae8fc;strokeColor=#6c8ebf;strokeWidth=2;fontSize=13;fontFamily=Verdana;" parent="9AGvx3cEIuA70uI9kTlu-24" vertex="1">
          <mxGeometry x="180" width="60" height="40" as="geometry" />
        </mxCell>
        <mxCell id="9AGvx3cEIuA70uI9kTlu-27" value="19/03/2024" style="rounded=0;whiteSpace=wrap;html=1;labelBackgroundColor=none;fillColor=#dae8fc;strokeColor=#6c8ebf;strokeWidth=2;fontSize=13;fontFamily=Verdana;" parent="9AGvx3cEIuA70uI9kTlu-24" vertex="1">
          <mxGeometry y="80" width="120" height="40" as="geometry" />
        </mxCell>
        <mxCell id="9AGvx3cEIuA70uI9kTlu-28" value="006" style="rounded=0;whiteSpace=wrap;html=1;labelBackgroundColor=none;fillColor=#dae8fc;strokeColor=#6c8ebf;strokeWidth=2;fontSize=13;fontFamily=Verdana;" parent="9AGvx3cEIuA70uI9kTlu-24" vertex="1">
          <mxGeometry width="60" height="40" as="geometry" />
        </mxCell>
        <mxCell id="9AGvx3cEIuA70uI9kTlu-29" value="2 ημ" style="rounded=0;whiteSpace=wrap;html=1;labelBackgroundColor=none;fillColor=#dae8fc;strokeColor=#6c8ebf;strokeWidth=2;fontSize=13;fontFamily=Verdana;" parent="9AGvx3cEIuA70uI9kTlu-24" vertex="1">
          <mxGeometry x="60" width="60" height="40" as="geometry" />
        </mxCell>
        <mxCell id="9AGvx3cEIuA70uI9kTlu-30" value="3 ημ" style="rounded=0;whiteSpace=wrap;html=1;labelBackgroundColor=none;fillColor=#dae8fc;strokeColor=#6c8ebf;strokeWidth=2;fontSize=13;fontFamily=Verdana;" parent="9AGvx3cEIuA70uI9kTlu-24" vertex="1">
          <mxGeometry x="120" width="60" height="40" as="geometry" />
        </mxCell>
        <mxCell id="9AGvx3cEIuA70uI9kTlu-31" value="21/03/2024" style="rounded=0;whiteSpace=wrap;html=1;labelBackgroundColor=none;fillColor=#dae8fc;strokeColor=#6c8ebf;strokeWidth=2;fontSize=13;fontFamily=Verdana;" parent="9AGvx3cEIuA70uI9kTlu-24" vertex="1">
          <mxGeometry x="120" y="80" width="120" height="40" as="geometry" />
        </mxCell>
        <mxCell id="9AGvx3cEIuA70uI9kTlu-32" value="" style="group;labelBackgroundColor=none;rounded=0;fillColor=#dae8fc;strokeColor=#6c8ebf;strokeWidth=2;fontSize=13;fontFamily=Verdana;textShadow=0;spacingLeft=6;" parent="1" vertex="1" connectable="0">
          <mxGeometry x="800" y="80" width="240" height="120" as="geometry" />
        </mxCell>
        <mxCell id="9AGvx3cEIuA70uI9kTlu-33" value="Risk-assessment-v0.1" style="rounded=0;whiteSpace=wrap;html=1;labelBackgroundColor=none;fillColor=#dae8fc;strokeColor=#6c8ebf;strokeWidth=2;fontSize=13;fontFamily=Verdana;textShadow=0;spacing=2;spacingTop=0;spacingLeft=0;shadow=1;" parent="9AGvx3cEIuA70uI9kTlu-32" vertex="1">
          <mxGeometry width="240" height="120" as="geometry" />
        </mxCell>
        <mxCell id="9AGvx3cEIuA70uI9kTlu-34" value="3 ημ" style="rounded=0;whiteSpace=wrap;html=1;labelBackgroundColor=none;fillColor=#dae8fc;strokeColor=#6c8ebf;strokeWidth=2;fontSize=13;fontFamily=Verdana;" parent="9AGvx3cEIuA70uI9kTlu-32" vertex="1">
          <mxGeometry x="180" width="60" height="40" as="geometry" />
        </mxCell>
        <mxCell id="9AGvx3cEIuA70uI9kTlu-35" value="19/03/2024" style="rounded=0;whiteSpace=wrap;html=1;labelBackgroundColor=none;fillColor=#dae8fc;strokeColor=#6c8ebf;strokeWidth=2;fontSize=13;fontFamily=Verdana;" parent="9AGvx3cEIuA70uI9kTlu-32" vertex="1">
          <mxGeometry y="80" width="120" height="40" as="geometry" />
        </mxCell>
        <mxCell id="9AGvx3cEIuA70uI9kTlu-36" value="004" style="rounded=0;whiteSpace=wrap;html=1;labelBackgroundColor=none;fillColor=#dae8fc;strokeColor=#6c8ebf;strokeWidth=2;fontSize=13;fontFamily=Verdana;" parent="9AGvx3cEIuA70uI9kTlu-32" vertex="1">
          <mxGeometry width="60" height="40" as="geometry" />
        </mxCell>
        <mxCell id="9AGvx3cEIuA70uI9kTlu-37" value="1 ημ" style="rounded=0;whiteSpace=wrap;html=1;labelBackgroundColor=none;fillColor=#dae8fc;strokeColor=#6c8ebf;strokeWidth=2;fontSize=13;fontFamily=Verdana;" parent="9AGvx3cEIuA70uI9kTlu-32" vertex="1">
          <mxGeometry x="60" width="60" height="40" as="geometry" />
        </mxCell>
        <mxCell id="9AGvx3cEIuA70uI9kTlu-38" value="2 ημ" style="rounded=0;whiteSpace=wrap;html=1;labelBackgroundColor=none;fillColor=#dae8fc;strokeColor=#6c8ebf;strokeWidth=2;fontSize=13;fontFamily=Verdana;" parent="9AGvx3cEIuA70uI9kTlu-32" vertex="1">
          <mxGeometry x="120" width="60" height="40" as="geometry" />
        </mxCell>
        <mxCell id="9AGvx3cEIuA70uI9kTlu-39" value="20/03/2024" style="rounded=0;whiteSpace=wrap;html=1;labelBackgroundColor=none;fillColor=#dae8fc;strokeColor=#6c8ebf;strokeWidth=2;fontSize=13;fontFamily=Verdana;" parent="9AGvx3cEIuA70uI9kTlu-32" vertex="1">
          <mxGeometry x="120" y="80" width="120" height="40" as="geometry" />
        </mxCell>
        <mxCell id="9AGvx3cEIuA70uI9kTlu-41" style="edgeStyle=orthogonalEdgeStyle;rounded=0;orthogonalLoop=1;jettySize=auto;html=1;exitX=1;exitY=0.5;exitDx=0;exitDy=0;entryX=0;entryY=0.5;entryDx=0;entryDy=0;endArrow=classic;endFill=1;" parent="1" source="9AGvx3cEIuA70uI9kTlu-11" target="9AGvx3cEIuA70uI9kTlu-33" edge="1">
          <mxGeometry relative="1" as="geometry" />
        </mxCell>
        <mxCell id="9AGvx3cEIuA70uI9kTlu-50" value="" style="group;labelBackgroundColor=none;rounded=0;fillColor=#dae8fc;strokeColor=#6c8ebf;strokeWidth=2;fontSize=13;fontFamily=Verdana;textShadow=0;spacingLeft=6;" parent="1" vertex="1" connectable="0">
          <mxGeometry x="1080" y="400" width="240" height="120" as="geometry" />
        </mxCell>
        <mxCell id="9AGvx3cEIuA70uI9kTlu-51" value="Use-cases-v0.1" style="rounded=0;whiteSpace=wrap;html=1;labelBackgroundColor=none;fillColor=#dae8fc;strokeColor=#6c8ebf;strokeWidth=2;fontSize=13;fontFamily=Verdana;textShadow=0;spacing=2;spacingTop=0;spacingLeft=0;shadow=1;" parent="9AGvx3cEIuA70uI9kTlu-50" vertex="1">
          <mxGeometry width="240" height="120" as="geometry" />
        </mxCell>
        <mxCell id="9AGvx3cEIuA70uI9kTlu-52" value="7 ημ" style="rounded=0;whiteSpace=wrap;html=1;labelBackgroundColor=none;fillColor=#dae8fc;strokeColor=#6c8ebf;strokeWidth=2;fontSize=13;fontFamily=Verdana;" parent="9AGvx3cEIuA70uI9kTlu-50" vertex="1">
          <mxGeometry x="180" width="60" height="40" as="geometry" />
        </mxCell>
        <mxCell id="9AGvx3cEIuA70uI9kTlu-53" value="22/03/2024" style="rounded=0;whiteSpace=wrap;html=1;labelBackgroundColor=none;fillColor=#dae8fc;strokeColor=#6c8ebf;strokeWidth=2;fontSize=13;fontFamily=Verdana;" parent="9AGvx3cEIuA70uI9kTlu-50" vertex="1">
          <mxGeometry y="80" width="120" height="40" as="geometry" />
        </mxCell>
        <mxCell id="9AGvx3cEIuA70uI9kTlu-54" value="008" style="rounded=0;whiteSpace=wrap;html=1;labelBackgroundColor=none;fillColor=#dae8fc;strokeColor=#6c8ebf;strokeWidth=2;fontSize=13;fontFamily=Verdana;" parent="9AGvx3cEIuA70uI9kTlu-50" vertex="1">
          <mxGeometry width="60" height="40" as="geometry" />
        </mxCell>
        <mxCell id="9AGvx3cEIuA70uI9kTlu-55" value="2 ημ" style="rounded=0;whiteSpace=wrap;html=1;labelBackgroundColor=none;fillColor=#dae8fc;strokeColor=#6c8ebf;strokeWidth=2;fontSize=13;fontFamily=Verdana;" parent="9AGvx3cEIuA70uI9kTlu-50" vertex="1">
          <mxGeometry x="60" width="60" height="40" as="geometry" />
        </mxCell>
        <mxCell id="9AGvx3cEIuA70uI9kTlu-56" value="4 ημ" style="rounded=0;whiteSpace=wrap;html=1;labelBackgroundColor=none;fillColor=#dae8fc;strokeColor=#6c8ebf;strokeWidth=2;fontSize=13;fontFamily=Verdana;" parent="9AGvx3cEIuA70uI9kTlu-50" vertex="1">
          <mxGeometry x="120" width="60" height="40" as="geometry" />
        </mxCell>
        <mxCell id="9AGvx3cEIuA70uI9kTlu-57" value="25/03/2024" style="rounded=0;whiteSpace=wrap;html=1;labelBackgroundColor=none;fillColor=#dae8fc;strokeColor=#6c8ebf;strokeWidth=2;fontSize=13;fontFamily=Verdana;" parent="9AGvx3cEIuA70uI9kTlu-50" vertex="1">
          <mxGeometry x="120" y="80" width="120" height="40" as="geometry" />
        </mxCell>
        <mxCell id="9AGvx3cEIuA70uI9kTlu-58" style="edgeStyle=orthogonalEdgeStyle;rounded=0;orthogonalLoop=1;jettySize=auto;html=1;exitX=1;exitY=0.5;exitDx=0;exitDy=0;entryX=0;entryY=0.5;entryDx=0;entryDy=0;strokeWidth=3;fillColor=#f8cecc;strokeColor=#b85450;endArrow=none;endFill=0;" parent="1" source="9AGvx3cEIuA70uI9kTlu-25" target="9AGvx3cEIuA70uI9kTlu-51" edge="1">
          <mxGeometry relative="1" as="geometry" />
        </mxCell>
        <mxCell id="9AGvx3cEIuA70uI9kTlu-60" value="" style="group;labelBackgroundColor=none;rounded=0;fillColor=#dae8fc;strokeColor=#6c8ebf;strokeWidth=2;fontSize=13;fontFamily=Verdana;textShadow=0;spacingLeft=6;" parent="1" vertex="1" connectable="0">
          <mxGeometry x="800" y="240" width="240" height="120" as="geometry" />
        </mxCell>
        <mxCell id="9AGvx3cEIuA70uI9kTlu-61" value="Project-description-v0.1" style="rounded=0;whiteSpace=wrap;html=1;labelBackgroundColor=none;fillColor=#dae8fc;strokeColor=#6c8ebf;strokeWidth=2;fontSize=13;fontFamily=Verdana;textShadow=0;spacing=2;spacingTop=0;spacingLeft=0;shadow=1;" parent="9AGvx3cEIuA70uI9kTlu-60" vertex="1">
          <mxGeometry width="240" height="120" as="geometry" />
        </mxCell>
        <mxCell id="9AGvx3cEIuA70uI9kTlu-62" value="5 ημ" style="rounded=0;whiteSpace=wrap;html=1;labelBackgroundColor=none;fillColor=#dae8fc;strokeColor=#6c8ebf;strokeWidth=2;fontSize=13;fontFamily=Verdana;" parent="9AGvx3cEIuA70uI9kTlu-60" vertex="1">
          <mxGeometry x="180" width="60" height="40" as="geometry" />
        </mxCell>
        <mxCell id="9AGvx3cEIuA70uI9kTlu-63" value="19/03/2024" style="rounded=0;whiteSpace=wrap;html=1;labelBackgroundColor=none;fillColor=#dae8fc;strokeColor=#6c8ebf;strokeWidth=2;fontSize=13;fontFamily=Verdana;" parent="9AGvx3cEIuA70uI9kTlu-60" vertex="1">
          <mxGeometry y="80" width="120" height="40" as="geometry" />
        </mxCell>
        <mxCell id="9AGvx3cEIuA70uI9kTlu-64" value="005" style="rounded=0;whiteSpace=wrap;html=1;labelBackgroundColor=none;fillColor=#dae8fc;strokeColor=#6c8ebf;strokeWidth=2;fontSize=13;fontFamily=Verdana;" parent="9AGvx3cEIuA70uI9kTlu-60" vertex="1">
          <mxGeometry width="60" height="40" as="geometry" />
        </mxCell>
        <mxCell id="9AGvx3cEIuA70uI9kTlu-65" value="1 ημ" style="rounded=0;whiteSpace=wrap;html=1;labelBackgroundColor=none;fillColor=#dae8fc;strokeColor=#6c8ebf;strokeWidth=2;fontSize=13;fontFamily=Verdana;" parent="9AGvx3cEIuA70uI9kTlu-60" vertex="1">
          <mxGeometry x="60" width="60" height="40" as="geometry" />
        </mxCell>
        <mxCell id="9AGvx3cEIuA70uI9kTlu-66" value="3 ημ" style="rounded=0;whiteSpace=wrap;html=1;labelBackgroundColor=none;fillColor=#dae8fc;strokeColor=#6c8ebf;strokeWidth=2;fontSize=13;fontFamily=Verdana;" parent="9AGvx3cEIuA70uI9kTlu-60" vertex="1">
          <mxGeometry x="120" width="60" height="40" as="geometry" />
        </mxCell>
        <mxCell id="9AGvx3cEIuA70uI9kTlu-67" value="21/03/2024" style="rounded=0;whiteSpace=wrap;html=1;labelBackgroundColor=none;fillColor=#dae8fc;strokeColor=#6c8ebf;strokeWidth=2;fontSize=13;fontFamily=Verdana;" parent="9AGvx3cEIuA70uI9kTlu-60" vertex="1">
          <mxGeometry x="120" y="80" width="120" height="40" as="geometry" />
        </mxCell>
        <mxCell id="9AGvx3cEIuA70uI9kTlu-68" style="edgeStyle=orthogonalEdgeStyle;rounded=0;orthogonalLoop=1;jettySize=auto;html=1;exitX=1;exitY=0.5;exitDx=0;exitDy=0;entryX=0;entryY=0.5;entryDx=0;entryDy=0;endArrow=classic;endFill=1;" parent="1" source="9AGvx3cEIuA70uI9kTlu-11" target="9AGvx3cEIuA70uI9kTlu-61" edge="1">
          <mxGeometry relative="1" as="geometry" />
        </mxCell>
        <mxCell id="9AGvx3cEIuA70uI9kTlu-70" value="" style="group;labelBackgroundColor=none;rounded=0;fillColor=#dae8fc;strokeColor=#6c8ebf;strokeWidth=2;fontSize=13;fontFamily=Verdana;textShadow=0;spacingLeft=6;" parent="1" vertex="1" connectable="0">
          <mxGeometry x="800" y="560" width="240" height="120" as="geometry" />
        </mxCell>
        <mxCell id="9AGvx3cEIuA70uI9kTlu-71" value="Team-plan-v0.1" style="rounded=0;whiteSpace=wrap;html=1;labelBackgroundColor=none;fillColor=#dae8fc;strokeColor=#6c8ebf;strokeWidth=2;fontSize=13;fontFamily=Verdana;textShadow=0;spacing=2;spacingTop=0;spacingLeft=0;shadow=1;" parent="9AGvx3cEIuA70uI9kTlu-70" vertex="1">
          <mxGeometry width="240" height="120" as="geometry" />
        </mxCell>
        <mxCell id="9AGvx3cEIuA70uI9kTlu-72" value="6 ημ" style="rounded=0;whiteSpace=wrap;html=1;labelBackgroundColor=none;fillColor=#dae8fc;strokeColor=#6c8ebf;strokeWidth=2;fontSize=13;fontFamily=Verdana;" parent="9AGvx3cEIuA70uI9kTlu-70" vertex="1">
          <mxGeometry x="180" width="60" height="40" as="geometry" />
        </mxCell>
        <mxCell id="9AGvx3cEIuA70uI9kTlu-73" value="19/03/2024" style="rounded=0;whiteSpace=wrap;html=1;labelBackgroundColor=none;fillColor=#dae8fc;strokeColor=#6c8ebf;strokeWidth=2;fontSize=13;fontFamily=Verdana;" parent="9AGvx3cEIuA70uI9kTlu-70" vertex="1">
          <mxGeometry y="80" width="120" height="40" as="geometry" />
        </mxCell>
        <mxCell id="9AGvx3cEIuA70uI9kTlu-74" value="007" style="rounded=0;whiteSpace=wrap;html=1;labelBackgroundColor=none;fillColor=#dae8fc;strokeColor=#6c8ebf;strokeWidth=2;fontSize=13;fontFamily=Verdana;" parent="9AGvx3cEIuA70uI9kTlu-70" vertex="1">
          <mxGeometry width="60" height="40" as="geometry" />
        </mxCell>
        <mxCell id="9AGvx3cEIuA70uI9kTlu-75" value="2 ημ" style="rounded=0;whiteSpace=wrap;html=1;labelBackgroundColor=none;fillColor=#dae8fc;strokeColor=#6c8ebf;strokeWidth=2;fontSize=13;fontFamily=Verdana;" parent="9AGvx3cEIuA70uI9kTlu-70" vertex="1">
          <mxGeometry x="60" width="60" height="40" as="geometry" />
        </mxCell>
        <mxCell id="9AGvx3cEIuA70uI9kTlu-76" value="3 ημ" style="rounded=0;whiteSpace=wrap;html=1;labelBackgroundColor=none;fillColor=#dae8fc;strokeColor=#6c8ebf;strokeWidth=2;fontSize=13;fontFamily=Verdana;" parent="9AGvx3cEIuA70uI9kTlu-70" vertex="1">
          <mxGeometry x="120" width="60" height="40" as="geometry" />
        </mxCell>
        <mxCell id="9AGvx3cEIuA70uI9kTlu-77" value="21/03/2024" style="rounded=0;whiteSpace=wrap;html=1;labelBackgroundColor=none;fillColor=#dae8fc;strokeColor=#6c8ebf;strokeWidth=2;fontSize=13;fontFamily=Verdana;" parent="9AGvx3cEIuA70uI9kTlu-70" vertex="1">
          <mxGeometry x="120" y="80" width="120" height="40" as="geometry" />
        </mxCell>
        <mxCell id="9AGvx3cEIuA70uI9kTlu-78" value="" style="group;labelBackgroundColor=none;rounded=0;fillColor=#dae8fc;strokeColor=#6c8ebf;strokeWidth=2;fontSize=13;fontFamily=Verdana;textShadow=0;spacingLeft=6;" parent="1" vertex="1" connectable="0">
          <mxGeometry x="1400" y="400" width="240" height="120" as="geometry" />
        </mxCell>
        <mxCell id="9AGvx3cEIuA70uI9kTlu-79" value="Project-plan-v0.1" style="rounded=0;whiteSpace=wrap;html=1;labelBackgroundColor=none;fillColor=#dae8fc;strokeColor=#6c8ebf;strokeWidth=2;fontSize=13;fontFamily=Verdana;textShadow=0;spacing=2;spacingTop=0;spacingLeft=0;shadow=1;" parent="9AGvx3cEIuA70uI9kTlu-78" vertex="1">
          <mxGeometry width="240" height="120" as="geometry" />
        </mxCell>
        <mxCell id="9AGvx3cEIuA70uI9kTlu-80" value="6 ημ" style="rounded=0;whiteSpace=wrap;html=1;labelBackgroundColor=none;fillColor=#dae8fc;strokeColor=#6c8ebf;strokeWidth=2;fontSize=13;fontFamily=Verdana;" parent="9AGvx3cEIuA70uI9kTlu-78" vertex="1">
          <mxGeometry x="180" width="60" height="40" as="geometry" />
        </mxCell>
        <mxCell id="9AGvx3cEIuA70uI9kTlu-81" value="26/03/2024" style="rounded=0;whiteSpace=wrap;html=1;labelBackgroundColor=none;fillColor=#dae8fc;strokeColor=#6c8ebf;strokeWidth=2;fontSize=13;fontFamily=Verdana;" parent="9AGvx3cEIuA70uI9kTlu-78" vertex="1">
          <mxGeometry y="80" width="120" height="40" as="geometry" />
        </mxCell>
        <mxCell id="9AGvx3cEIuA70uI9kTlu-82" value="009" style="rounded=0;whiteSpace=wrap;html=1;labelBackgroundColor=none;fillColor=#dae8fc;strokeColor=#6c8ebf;strokeWidth=2;fontSize=13;fontFamily=Verdana;" parent="9AGvx3cEIuA70uI9kTlu-78" vertex="1">
          <mxGeometry width="60" height="40" as="geometry" />
        </mxCell>
        <mxCell id="9AGvx3cEIuA70uI9kTlu-83" value="2 ημ" style="rounded=0;whiteSpace=wrap;html=1;labelBackgroundColor=none;fillColor=#dae8fc;strokeColor=#6c8ebf;strokeWidth=2;fontSize=13;fontFamily=Verdana;" parent="9AGvx3cEIuA70uI9kTlu-78" vertex="1">
          <mxGeometry x="60" width="60" height="40" as="geometry" />
        </mxCell>
        <mxCell id="9AGvx3cEIuA70uI9kTlu-84" value="3 ημ" style="rounded=0;whiteSpace=wrap;html=1;labelBackgroundColor=none;fillColor=#dae8fc;strokeColor=#6c8ebf;strokeWidth=2;fontSize=13;fontFamily=Verdana;" parent="9AGvx3cEIuA70uI9kTlu-78" vertex="1">
          <mxGeometry x="120" width="60" height="40" as="geometry" />
        </mxCell>
        <mxCell id="9AGvx3cEIuA70uI9kTlu-85" value="28/03/2024" style="rounded=0;whiteSpace=wrap;html=1;labelBackgroundColor=none;fillColor=#dae8fc;strokeColor=#6c8ebf;strokeWidth=2;fontSize=13;fontFamily=Verdana;" parent="9AGvx3cEIuA70uI9kTlu-78" vertex="1">
          <mxGeometry x="120" y="80" width="120" height="40" as="geometry" />
        </mxCell>
        <mxCell id="9AGvx3cEIuA70uI9kTlu-91" style="edgeStyle=orthogonalEdgeStyle;rounded=0;orthogonalLoop=1;jettySize=auto;html=1;exitX=1;exitY=0.5;exitDx=0;exitDy=0;entryX=0;entryY=0.5;entryDx=0;entryDy=0;fillColor=#f8cecc;strokeColor=#b85450;strokeWidth=3;endArrow=classic;endFill=1;" parent="1" source="9AGvx3cEIuA70uI9kTlu-79" target="9AGvx3cEIuA70uI9kTlu-22" edge="1">
          <mxGeometry relative="1" as="geometry" />
        </mxCell>
        <mxCell id="9AGvx3cEIuA70uI9kTlu-92" style="edgeStyle=orthogonalEdgeStyle;rounded=0;orthogonalLoop=1;jettySize=auto;html=1;exitX=1;exitY=0.5;exitDx=0;exitDy=0;entryX=0;entryY=0.5;entryDx=0;entryDy=0;endArrow=classic;endFill=1;" parent="1" source="9AGvx3cEIuA70uI9kTlu-11" target="9AGvx3cEIuA70uI9kTlu-71" edge="1">
          <mxGeometry relative="1" as="geometry" />
        </mxCell>
        <mxCell id="9AGvx3cEIuA70uI9kTlu-98" style="edgeStyle=orthogonalEdgeStyle;rounded=0;orthogonalLoop=1;jettySize=auto;html=1;exitX=1;exitY=1;exitDx=0;exitDy=0;entryX=1;entryY=0;entryDx=0;entryDy=0;fillColor=#f8cecc;strokeColor=#b85450;strokeWidth=3;endArrow=classic;endFill=1;" parent="1" source="CVc4jxOMxT3N2XDxZNE8-6" target="9AGvx3cEIuA70uI9kTlu-6" edge="1">
          <mxGeometry relative="1" as="geometry" />
        </mxCell>
        <mxCell id="9AGvx3cEIuA70uI9kTlu-99" style="edgeStyle=orthogonalEdgeStyle;rounded=0;orthogonalLoop=1;jettySize=auto;html=1;exitX=1;exitY=1;exitDx=0;exitDy=0;entryX=0;entryY=0;entryDx=0;entryDy=0;strokeWidth=3;fillColor=#f8cecc;strokeColor=#b85450;endArrow=classic;endFill=1;" parent="1" source="9AGvx3cEIuA70uI9kTlu-4" target="9AGvx3cEIuA70uI9kTlu-16" edge="1">
          <mxGeometry relative="1" as="geometry" />
        </mxCell>
        <mxCell id="9AGvx3cEIuA70uI9kTlu-59" style="edgeStyle=orthogonalEdgeStyle;rounded=0;orthogonalLoop=1;jettySize=auto;html=1;exitX=1;exitY=0.5;exitDx=0;exitDy=0;entryX=0;entryY=0.5;entryDx=0;entryDy=0;strokeWidth=3;fillColor=#f8cecc;strokeColor=#b85450;endArrow=classic;endFill=1;" parent="1" source="9AGvx3cEIuA70uI9kTlu-11" target="9AGvx3cEIuA70uI9kTlu-25" edge="1">
          <mxGeometry relative="1" as="geometry" />
        </mxCell>
        <mxCell id="9AGvx3cEIuA70uI9kTlu-106" value="" style="group;labelBackgroundColor=none;rounded=0;fillColor=#dae8fc;strokeColor=#6c8ebf;strokeWidth=2;fontSize=13;fontFamily=Verdana;textShadow=0;spacingLeft=6;" parent="1" vertex="1" connectable="0">
          <mxGeometry x="1520" y="870" width="240" height="122" as="geometry" />
        </mxCell>
        <mxCell id="9AGvx3cEIuA70uI9kTlu-107" value="Robustness-diagrams-v0.1" style="rounded=0;whiteSpace=wrap;html=1;labelBackgroundColor=none;fillColor=#dae8fc;strokeColor=#6c8ebf;strokeWidth=2;fontSize=13;fontFamily=Verdana;textShadow=0;spacing=2;spacingTop=0;spacingLeft=0;shadow=1;" parent="9AGvx3cEIuA70uI9kTlu-106" vertex="1">
          <mxGeometry width="240" height="122" as="geometry" />
        </mxCell>
        <mxCell id="9AGvx3cEIuA70uI9kTlu-108" value="9 ημ" style="rounded=0;whiteSpace=wrap;html=1;labelBackgroundColor=none;fillColor=#dae8fc;strokeColor=#6c8ebf;strokeWidth=2;fontSize=13;fontFamily=Verdana;" parent="9AGvx3cEIuA70uI9kTlu-106" vertex="1">
          <mxGeometry x="180" width="60" height="42" as="geometry" />
        </mxCell>
        <mxCell id="9AGvx3cEIuA70uI9kTlu-109" value="01/04/2024" style="rounded=0;whiteSpace=wrap;html=1;labelBackgroundColor=none;fillColor=#dae8fc;strokeColor=#6c8ebf;strokeWidth=2;fontSize=13;fontFamily=Verdana;" parent="9AGvx3cEIuA70uI9kTlu-106" vertex="1">
          <mxGeometry y="80" width="120" height="42" as="geometry" />
        </mxCell>
        <mxCell id="9AGvx3cEIuA70uI9kTlu-110" value="011" style="rounded=0;whiteSpace=wrap;html=1;labelBackgroundColor=none;fillColor=#dae8fc;strokeColor=#6c8ebf;strokeWidth=2;fontSize=13;fontFamily=Verdana;" parent="9AGvx3cEIuA70uI9kTlu-106" vertex="1">
          <mxGeometry width="60" height="42" as="geometry" />
        </mxCell>
        <mxCell id="9AGvx3cEIuA70uI9kTlu-111" value="2 ημ" style="rounded=0;whiteSpace=wrap;html=1;labelBackgroundColor=none;fillColor=#dae8fc;strokeColor=#6c8ebf;strokeWidth=2;fontSize=13;fontFamily=Verdana;" parent="9AGvx3cEIuA70uI9kTlu-106" vertex="1">
          <mxGeometry x="60" width="60" height="42" as="geometry" />
        </mxCell>
        <mxCell id="9AGvx3cEIuA70uI9kTlu-112" value="7 ημ" style="rounded=0;whiteSpace=wrap;html=1;labelBackgroundColor=none;fillColor=#dae8fc;strokeColor=#6c8ebf;strokeWidth=2;fontSize=13;fontFamily=Verdana;" parent="9AGvx3cEIuA70uI9kTlu-106" vertex="1">
          <mxGeometry x="120" width="60" height="42" as="geometry" />
        </mxCell>
        <mxCell id="9AGvx3cEIuA70uI9kTlu-113" value="07/03/2024" style="rounded=0;whiteSpace=wrap;html=1;labelBackgroundColor=none;fillColor=#dae8fc;strokeColor=#6c8ebf;strokeWidth=2;fontSize=13;fontFamily=Verdana;" parent="9AGvx3cEIuA70uI9kTlu-106" vertex="1">
          <mxGeometry x="120" y="80" width="120" height="42" as="geometry" />
        </mxCell>
        <mxCell id="9AGvx3cEIuA70uI9kTlu-115" value="" style="group;labelBackgroundColor=none;rounded=0;fillColor=#dae8fc;strokeColor=#6c8ebf;strokeWidth=2;fontSize=13;fontFamily=Verdana;textShadow=0;spacingLeft=6;" parent="1" vertex="1" connectable="0">
          <mxGeometry x="1241" y="870" width="240" height="122" as="geometry" />
        </mxCell>
        <mxCell id="9AGvx3cEIuA70uI9kTlu-116" value="Sequence-diagrams-v0.1" style="rounded=0;whiteSpace=wrap;html=1;labelBackgroundColor=none;fillColor=#dae8fc;strokeColor=#6c8ebf;strokeWidth=2;fontSize=13;fontFamily=Verdana;textShadow=0;spacing=2;spacingTop=0;spacingLeft=0;shadow=1;" parent="9AGvx3cEIuA70uI9kTlu-115" vertex="1">
          <mxGeometry width="240" height="122" as="geometry" />
        </mxCell>
        <mxCell id="9AGvx3cEIuA70uI9kTlu-117" value="9 ημ" style="rounded=0;whiteSpace=wrap;html=1;labelBackgroundColor=none;fillColor=#dae8fc;strokeColor=#6c8ebf;strokeWidth=2;fontSize=13;fontFamily=Verdana;" parent="9AGvx3cEIuA70uI9kTlu-115" vertex="1">
          <mxGeometry x="180" width="60" height="42" as="geometry" />
        </mxCell>
        <mxCell id="9AGvx3cEIuA70uI9kTlu-118" value="08/04/2024" style="rounded=0;whiteSpace=wrap;html=1;labelBackgroundColor=none;fillColor=#dae8fc;strokeColor=#6c8ebf;strokeWidth=2;fontSize=13;fontFamily=Verdana;" parent="9AGvx3cEIuA70uI9kTlu-115" vertex="1">
          <mxGeometry y="80" width="120" height="42" as="geometry" />
        </mxCell>
        <mxCell id="9AGvx3cEIuA70uI9kTlu-119" value="012" style="rounded=0;whiteSpace=wrap;html=1;labelBackgroundColor=none;fillColor=#dae8fc;strokeColor=#6c8ebf;strokeWidth=2;fontSize=13;fontFamily=Verdana;" parent="9AGvx3cEIuA70uI9kTlu-115" vertex="1">
          <mxGeometry width="60" height="42" as="geometry" />
        </mxCell>
        <mxCell id="9AGvx3cEIuA70uI9kTlu-120" value="3 ημ" style="rounded=0;whiteSpace=wrap;html=1;labelBackgroundColor=none;fillColor=#dae8fc;strokeColor=#6c8ebf;strokeWidth=2;fontSize=13;fontFamily=Verdana;" parent="9AGvx3cEIuA70uI9kTlu-115" vertex="1">
          <mxGeometry x="60" width="60" height="42" as="geometry" />
        </mxCell>
        <mxCell id="9AGvx3cEIuA70uI9kTlu-121" value="7 ημ" style="rounded=0;whiteSpace=wrap;html=1;labelBackgroundColor=none;fillColor=#dae8fc;strokeColor=#6c8ebf;strokeWidth=2;fontSize=13;fontFamily=Verdana;" parent="9AGvx3cEIuA70uI9kTlu-115" vertex="1">
          <mxGeometry x="120" width="60" height="42" as="geometry" />
        </mxCell>
        <mxCell id="9AGvx3cEIuA70uI9kTlu-122" value="14/04/2024" style="rounded=0;whiteSpace=wrap;html=1;labelBackgroundColor=none;fillColor=#dae8fc;strokeColor=#6c8ebf;strokeWidth=2;fontSize=13;fontFamily=Verdana;" parent="9AGvx3cEIuA70uI9kTlu-115" vertex="1">
          <mxGeometry x="120" y="80" width="120" height="42" as="geometry" />
        </mxCell>
        <mxCell id="9AGvx3cEIuA70uI9kTlu-123" value="" style="group;labelBackgroundColor=none;rounded=0;fillColor=#dae8fc;strokeColor=#6c8ebf;strokeWidth=2;fontSize=13;fontFamily=Verdana;textShadow=0;spacingLeft=6;" parent="1" vertex="1" connectable="0">
          <mxGeometry x="920" y="774" width="240" height="122" as="geometry" />
        </mxCell>
        <mxCell id="9AGvx3cEIuA70uI9kTlu-124" value="Domain-model-v0.2" style="rounded=0;whiteSpace=wrap;html=1;labelBackgroundColor=none;fillColor=#dae8fc;strokeColor=#6c8ebf;strokeWidth=2;fontSize=13;fontFamily=Verdana;textShadow=0;spacing=2;spacingTop=0;spacingLeft=0;shadow=1;" parent="9AGvx3cEIuA70uI9kTlu-123" vertex="1">
          <mxGeometry width="240" height="122" as="geometry" />
        </mxCell>
        <mxCell id="9AGvx3cEIuA70uI9kTlu-125" value="7 ημ" style="rounded=0;whiteSpace=wrap;html=1;labelBackgroundColor=none;fillColor=#dae8fc;strokeColor=#6c8ebf;strokeWidth=2;fontSize=13;fontFamily=Verdana;" parent="9AGvx3cEIuA70uI9kTlu-123" vertex="1">
          <mxGeometry x="180" width="60" height="42" as="geometry" />
        </mxCell>
        <mxCell id="9AGvx3cEIuA70uI9kTlu-126" value="15/04/2024" style="rounded=0;whiteSpace=wrap;html=1;labelBackgroundColor=none;fillColor=#dae8fc;strokeColor=#6c8ebf;strokeWidth=2;fontSize=13;fontFamily=Verdana;" parent="9AGvx3cEIuA70uI9kTlu-123" vertex="1">
          <mxGeometry y="80" width="120" height="42" as="geometry" />
        </mxCell>
        <mxCell id="9AGvx3cEIuA70uI9kTlu-127" value="013" style="rounded=0;whiteSpace=wrap;html=1;labelBackgroundColor=none;fillColor=#dae8fc;strokeColor=#6c8ebf;strokeWidth=2;fontSize=13;fontFamily=Verdana;" parent="9AGvx3cEIuA70uI9kTlu-123" vertex="1">
          <mxGeometry width="60" height="42" as="geometry" />
        </mxCell>
        <mxCell id="9AGvx3cEIuA70uI9kTlu-128" value="2 ημ" style="rounded=0;whiteSpace=wrap;html=1;labelBackgroundColor=none;fillColor=#dae8fc;strokeColor=#6c8ebf;strokeWidth=2;fontSize=13;fontFamily=Verdana;" parent="9AGvx3cEIuA70uI9kTlu-123" vertex="1">
          <mxGeometry x="60" width="60" height="42" as="geometry" />
        </mxCell>
        <mxCell id="9AGvx3cEIuA70uI9kTlu-129" value="5 ημ" style="rounded=0;whiteSpace=wrap;html=1;labelBackgroundColor=none;fillColor=#dae8fc;strokeColor=#6c8ebf;strokeWidth=2;fontSize=13;fontFamily=Verdana;" parent="9AGvx3cEIuA70uI9kTlu-123" vertex="1">
          <mxGeometry x="120" width="60" height="42" as="geometry" />
        </mxCell>
        <mxCell id="9AGvx3cEIuA70uI9kTlu-130" value="19/04/2024" style="rounded=0;whiteSpace=wrap;html=1;labelBackgroundColor=none;fillColor=#dae8fc;strokeColor=#6c8ebf;strokeWidth=2;fontSize=13;fontFamily=Verdana;" parent="9AGvx3cEIuA70uI9kTlu-123" vertex="1">
          <mxGeometry x="120" y="80" width="120" height="42" as="geometry" />
        </mxCell>
        <mxCell id="9AGvx3cEIuA70uI9kTlu-131" value="" style="group;labelBackgroundColor=none;rounded=0;fillColor=#dae8fc;strokeColor=#6c8ebf;strokeWidth=2;fontSize=13;fontFamily=Verdana;textShadow=0;spacingLeft=6;" parent="1" vertex="1" connectable="0">
          <mxGeometry x="920" y="940" width="240" height="122" as="geometry" />
        </mxCell>
        <mxCell id="9AGvx3cEIuA70uI9kTlu-132" value="Use-cases-v0.2" style="rounded=0;whiteSpace=wrap;html=1;labelBackgroundColor=none;fillColor=#dae8fc;strokeColor=#6c8ebf;strokeWidth=2;fontSize=13;fontFamily=Verdana;textShadow=0;spacing=2;spacingTop=0;spacingLeft=0;shadow=1;" parent="9AGvx3cEIuA70uI9kTlu-131" vertex="1">
          <mxGeometry width="240" height="122" as="geometry" />
        </mxCell>
        <mxCell id="9AGvx3cEIuA70uI9kTlu-133" value="7 ημ" style="rounded=0;whiteSpace=wrap;html=1;labelBackgroundColor=none;fillColor=#dae8fc;strokeColor=#6c8ebf;strokeWidth=2;fontSize=13;fontFamily=Verdana;" parent="9AGvx3cEIuA70uI9kTlu-131" vertex="1">
          <mxGeometry x="180" width="60" height="42" as="geometry" />
        </mxCell>
        <mxCell id="9AGvx3cEIuA70uI9kTlu-134" value="15/04/2024" style="rounded=0;whiteSpace=wrap;html=1;labelBackgroundColor=none;fillColor=#dae8fc;strokeColor=#6c8ebf;strokeWidth=2;fontSize=13;fontFamily=Verdana;" parent="9AGvx3cEIuA70uI9kTlu-131" vertex="1">
          <mxGeometry y="80" width="120" height="42" as="geometry" />
        </mxCell>
        <mxCell id="9AGvx3cEIuA70uI9kTlu-135" value="014" style="rounded=0;whiteSpace=wrap;html=1;labelBackgroundColor=none;fillColor=#dae8fc;strokeColor=#6c8ebf;strokeWidth=2;fontSize=13;fontFamily=Verdana;" parent="9AGvx3cEIuA70uI9kTlu-131" vertex="1">
          <mxGeometry width="60" height="42" as="geometry" />
        </mxCell>
        <mxCell id="9AGvx3cEIuA70uI9kTlu-136" value="2 ημ" style="rounded=0;whiteSpace=wrap;html=1;labelBackgroundColor=none;fillColor=#dae8fc;strokeColor=#6c8ebf;strokeWidth=2;fontSize=13;fontFamily=Verdana;" parent="9AGvx3cEIuA70uI9kTlu-131" vertex="1">
          <mxGeometry x="60" width="60" height="42" as="geometry" />
        </mxCell>
        <mxCell id="9AGvx3cEIuA70uI9kTlu-137" value="5 ημ" style="rounded=0;whiteSpace=wrap;html=1;labelBackgroundColor=none;fillColor=#dae8fc;strokeColor=#6c8ebf;strokeWidth=2;fontSize=13;fontFamily=Verdana;" parent="9AGvx3cEIuA70uI9kTlu-131" vertex="1">
          <mxGeometry x="120" width="60" height="42" as="geometry" />
        </mxCell>
        <mxCell id="9AGvx3cEIuA70uI9kTlu-138" value="19/04/2024" style="rounded=0;whiteSpace=wrap;html=1;labelBackgroundColor=none;fillColor=#dae8fc;strokeColor=#6c8ebf;strokeWidth=2;fontSize=13;fontFamily=Verdana;" parent="9AGvx3cEIuA70uI9kTlu-131" vertex="1">
          <mxGeometry x="120" y="80" width="120" height="42" as="geometry" />
        </mxCell>
        <mxCell id="D4qjIRYr9ggsZmWQDk_U-67" style="edgeStyle=orthogonalEdgeStyle;rounded=0;orthogonalLoop=1;jettySize=auto;html=1;exitX=0;exitY=0.5;exitDx=0;exitDy=0;entryX=0;entryY=0.5;entryDx=0;entryDy=0;" parent="1" source="9AGvx3cEIuA70uI9kTlu-143" target="D4qjIRYr9ggsZmWQDk_U-51" edge="1">
          <mxGeometry relative="1" as="geometry" />
        </mxCell>
        <mxCell id="9AGvx3cEIuA70uI9kTlu-143" value="&lt;font style=&quot;font-size: 13px;&quot; face=&quot;Verdana&quot;&gt;2η&lt;/font&gt;&lt;div style=&quot;font-size: 13px;&quot;&gt;&lt;font face=&quot;Verdana&quot; style=&quot;font-size: 13px;&quot;&gt;Παράδοση&lt;/font&gt;&lt;/div&gt;" style="rhombus;whiteSpace=wrap;html=1;fillColor=#fff2cc;strokeColor=#d6b656;" parent="1" vertex="1">
          <mxGeometry x="450" y="779" width="110" height="112" as="geometry" />
        </mxCell>
        <mxCell id="JGt1HLMFAKdLXa0e5AWq-9" value="" style="group;labelBackgroundColor=none;rounded=0;fillColor=#dae8fc;strokeColor=#6c8ebf;strokeWidth=2;fontSize=13;fontFamily=Verdana;textShadow=0;spacingLeft=6;" parent="1" vertex="1" connectable="0">
          <mxGeometry x="1520" y="680" width="240" height="122" as="geometry" />
        </mxCell>
        <mxCell id="JGt1HLMFAKdLXa0e5AWq-10" value="Team-plan-v0.2" style="rounded=0;whiteSpace=wrap;html=1;labelBackgroundColor=none;fillColor=#dae8fc;strokeColor=#6c8ebf;strokeWidth=2;fontSize=13;fontFamily=Verdana;textShadow=0;spacing=2;spacingTop=0;spacingLeft=0;shadow=1;" parent="JGt1HLMFAKdLXa0e5AWq-9" vertex="1">
          <mxGeometry width="240" height="122" as="geometry" />
        </mxCell>
        <mxCell id="JGt1HLMFAKdLXa0e5AWq-11" value="4 ημ" style="rounded=0;whiteSpace=wrap;html=1;labelBackgroundColor=none;fillColor=#dae8fc;strokeColor=#6c8ebf;strokeWidth=2;fontSize=13;fontFamily=Verdana;" parent="JGt1HLMFAKdLXa0e5AWq-9" vertex="1">
          <mxGeometry x="180" width="60" height="42" as="geometry" />
        </mxCell>
        <mxCell id="JGt1HLMFAKdLXa0e5AWq-12" value="01/04/2024" style="rounded=0;whiteSpace=wrap;html=1;labelBackgroundColor=none;fillColor=#dae8fc;strokeColor=#6c8ebf;strokeWidth=2;fontSize=13;fontFamily=Verdana;" parent="JGt1HLMFAKdLXa0e5AWq-9" vertex="1">
          <mxGeometry y="80" width="120" height="42" as="geometry" />
        </mxCell>
        <mxCell id="JGt1HLMFAKdLXa0e5AWq-13" value="010" style="rounded=0;whiteSpace=wrap;html=1;labelBackgroundColor=none;fillColor=#dae8fc;strokeColor=#6c8ebf;strokeWidth=2;fontSize=13;fontFamily=Verdana;" parent="JGt1HLMFAKdLXa0e5AWq-9" vertex="1">
          <mxGeometry width="60" height="42" as="geometry" />
        </mxCell>
        <mxCell id="JGt1HLMFAKdLXa0e5AWq-14" value="1 ημ" style="rounded=0;whiteSpace=wrap;html=1;labelBackgroundColor=none;fillColor=#dae8fc;strokeColor=#6c8ebf;strokeWidth=2;fontSize=13;fontFamily=Verdana;" parent="JGt1HLMFAKdLXa0e5AWq-9" vertex="1">
          <mxGeometry x="60" width="60" height="42" as="geometry" />
        </mxCell>
        <mxCell id="JGt1HLMFAKdLXa0e5AWq-15" value="2 ημ" style="rounded=0;whiteSpace=wrap;html=1;labelBackgroundColor=none;fillColor=#dae8fc;strokeColor=#6c8ebf;strokeWidth=2;fontSize=13;fontFamily=Verdana;" parent="JGt1HLMFAKdLXa0e5AWq-9" vertex="1">
          <mxGeometry x="120" width="60" height="42" as="geometry" />
        </mxCell>
        <mxCell id="JGt1HLMFAKdLXa0e5AWq-16" value="02/03/2024" style="rounded=0;whiteSpace=wrap;html=1;labelBackgroundColor=none;fillColor=#dae8fc;strokeColor=#6c8ebf;strokeWidth=2;fontSize=13;fontFamily=Verdana;" parent="JGt1HLMFAKdLXa0e5AWq-9" vertex="1">
          <mxGeometry x="120" y="80" width="120" height="42" as="geometry" />
        </mxCell>
        <mxCell id="JGt1HLMFAKdLXa0e5AWq-26" style="edgeStyle=orthogonalEdgeStyle;rounded=0;orthogonalLoop=1;jettySize=auto;html=1;exitX=0;exitY=0.5;exitDx=0;exitDy=0;entryX=1;entryY=0.5;entryDx=0;entryDy=0;fillColor=#f8cecc;strokeColor=#b85450;strokeWidth=3;" parent="1" source="9AGvx3cEIuA70uI9kTlu-107" target="9AGvx3cEIuA70uI9kTlu-116" edge="1">
          <mxGeometry relative="1" as="geometry" />
        </mxCell>
        <mxCell id="JGt1HLMFAKdLXa0e5AWq-27" style="edgeStyle=orthogonalEdgeStyle;rounded=0;orthogonalLoop=1;jettySize=auto;html=1;exitX=0;exitY=0.5;exitDx=0;exitDy=0;entryX=1;entryY=0.5;entryDx=0;entryDy=0;endArrow=classic;endFill=1;" parent="1" source="9AGvx3cEIuA70uI9kTlu-116" target="9AGvx3cEIuA70uI9kTlu-124" edge="1">
          <mxGeometry relative="1" as="geometry" />
        </mxCell>
        <mxCell id="JGt1HLMFAKdLXa0e5AWq-28" style="edgeStyle=orthogonalEdgeStyle;rounded=0;orthogonalLoop=1;jettySize=auto;html=1;exitX=0;exitY=0.5;exitDx=0;exitDy=0;entryX=1;entryY=0.5;entryDx=0;entryDy=0;endArrow=classic;endFill=1;fillColor=#f8cecc;strokeColor=#b85450;strokeWidth=3;" parent="1" source="9AGvx3cEIuA70uI9kTlu-116" target="9AGvx3cEIuA70uI9kTlu-132" edge="1">
          <mxGeometry relative="1" as="geometry" />
        </mxCell>
        <mxCell id="JGt1HLMFAKdLXa0e5AWq-33" value="" style="group;labelBackgroundColor=none;rounded=0;fillColor=#dae8fc;strokeColor=#6c8ebf;strokeWidth=2;fontSize=13;fontFamily=Verdana;textShadow=0;spacingLeft=6;" parent="1" vertex="1" connectable="0">
          <mxGeometry x="490" y="1160" width="240" height="120" as="geometry" />
        </mxCell>
        <mxCell id="JGt1HLMFAKdLXa0e5AWq-34" value="Class-diagram-v0.1" style="rounded=0;whiteSpace=wrap;html=1;labelBackgroundColor=none;fillColor=#dae8fc;strokeColor=#6c8ebf;strokeWidth=2;fontSize=13;fontFamily=Verdana;textShadow=0;spacing=2;spacingTop=0;spacingLeft=0;shadow=1;" parent="JGt1HLMFAKdLXa0e5AWq-33" vertex="1">
          <mxGeometry width="240" height="120" as="geometry" />
        </mxCell>
        <mxCell id="JGt1HLMFAKdLXa0e5AWq-35" value="6 ημ" style="rounded=0;whiteSpace=wrap;html=1;labelBackgroundColor=none;fillColor=#dae8fc;strokeColor=#6c8ebf;strokeWidth=2;fontSize=13;fontFamily=Verdana;" parent="JGt1HLMFAKdLXa0e5AWq-33" vertex="1">
          <mxGeometry x="180" width="60" height="40" as="geometry" />
        </mxCell>
        <mxCell id="JGt1HLMFAKdLXa0e5AWq-36" value="01/05/2024" style="rounded=0;whiteSpace=wrap;html=1;labelBackgroundColor=none;fillColor=#dae8fc;strokeColor=#6c8ebf;strokeWidth=2;fontSize=13;fontFamily=Verdana;" parent="JGt1HLMFAKdLXa0e5AWq-33" vertex="1">
          <mxGeometry y="80" width="120" height="40" as="geometry" />
        </mxCell>
        <mxCell id="JGt1HLMFAKdLXa0e5AWq-37" value="016" style="rounded=0;whiteSpace=wrap;html=1;labelBackgroundColor=none;fillColor=#dae8fc;strokeColor=#6c8ebf;strokeWidth=2;fontSize=13;fontFamily=Verdana;" parent="JGt1HLMFAKdLXa0e5AWq-33" vertex="1">
          <mxGeometry width="60" height="40" as="geometry" />
        </mxCell>
        <mxCell id="JGt1HLMFAKdLXa0e5AWq-38" value="2 ημ" style="rounded=0;whiteSpace=wrap;html=1;labelBackgroundColor=none;fillColor=#dae8fc;strokeColor=#6c8ebf;strokeWidth=2;fontSize=13;fontFamily=Verdana;" parent="JGt1HLMFAKdLXa0e5AWq-33" vertex="1">
          <mxGeometry x="60" width="60" height="40" as="geometry" />
        </mxCell>
        <mxCell id="JGt1HLMFAKdLXa0e5AWq-39" value="5 ημ" style="rounded=0;whiteSpace=wrap;html=1;labelBackgroundColor=none;fillColor=#dae8fc;strokeColor=#6c8ebf;strokeWidth=2;fontSize=13;fontFamily=Verdana;" parent="JGt1HLMFAKdLXa0e5AWq-33" vertex="1">
          <mxGeometry x="120" width="60" height="40" as="geometry" />
        </mxCell>
        <mxCell id="JGt1HLMFAKdLXa0e5AWq-40" value="04/05/2024" style="rounded=0;whiteSpace=wrap;html=1;labelBackgroundColor=none;fillColor=#dae8fc;strokeColor=#6c8ebf;strokeWidth=2;fontSize=13;fontFamily=Verdana;" parent="JGt1HLMFAKdLXa0e5AWq-33" vertex="1">
          <mxGeometry x="120" y="80" width="120" height="40" as="geometry" />
        </mxCell>
        <mxCell id="JGt1HLMFAKdLXa0e5AWq-41" value="" style="group;labelBackgroundColor=none;rounded=0;fillColor=#dae8fc;strokeColor=#6c8ebf;strokeWidth=2;fontSize=13;fontFamily=Verdana;textShadow=0;spacingLeft=6;" parent="1" vertex="1" connectable="0">
          <mxGeometry x="1320" y="1040" width="240" height="120" as="geometry" />
        </mxCell>
        <mxCell id="JGt1HLMFAKdLXa0e5AWq-42" value="Team-plan-v1.0" style="rounded=0;whiteSpace=wrap;html=1;labelBackgroundColor=none;fillColor=#dae8fc;strokeColor=#6c8ebf;strokeWidth=2;fontSize=13;fontFamily=Verdana;textShadow=0;spacing=2;spacingTop=0;spacingLeft=0;shadow=1;" parent="JGt1HLMFAKdLXa0e5AWq-41" vertex="1">
          <mxGeometry width="240" height="120" as="geometry" />
        </mxCell>
        <mxCell id="JGt1HLMFAKdLXa0e5AWq-43" value="6 ημ" style="rounded=0;whiteSpace=wrap;html=1;labelBackgroundColor=none;fillColor=#dae8fc;strokeColor=#6c8ebf;strokeWidth=2;fontSize=13;fontFamily=Verdana;" parent="JGt1HLMFAKdLXa0e5AWq-41" vertex="1">
          <mxGeometry x="180" width="60" height="40" as="geometry" />
        </mxCell>
        <mxCell id="JGt1HLMFAKdLXa0e5AWq-44" value="01/06/2024" style="rounded=0;whiteSpace=wrap;html=1;labelBackgroundColor=none;fillColor=#dae8fc;strokeColor=#6c8ebf;strokeWidth=2;fontSize=13;fontFamily=Verdana;" parent="JGt1HLMFAKdLXa0e5AWq-41" vertex="1">
          <mxGeometry y="80" width="120" height="40" as="geometry" />
        </mxCell>
        <mxCell id="JGt1HLMFAKdLXa0e5AWq-45" value="021" style="rounded=0;whiteSpace=wrap;html=1;labelBackgroundColor=none;fillColor=#dae8fc;strokeColor=#6c8ebf;strokeWidth=2;fontSize=13;fontFamily=Verdana;" parent="JGt1HLMFAKdLXa0e5AWq-41" vertex="1">
          <mxGeometry width="60" height="40" as="geometry" />
        </mxCell>
        <mxCell id="JGt1HLMFAKdLXa0e5AWq-46" value="2 ημ" style="rounded=0;whiteSpace=wrap;html=1;labelBackgroundColor=none;fillColor=#dae8fc;strokeColor=#6c8ebf;strokeWidth=2;fontSize=13;fontFamily=Verdana;" parent="JGt1HLMFAKdLXa0e5AWq-41" vertex="1">
          <mxGeometry x="60" width="60" height="40" as="geometry" />
        </mxCell>
        <mxCell id="JGt1HLMFAKdLXa0e5AWq-47" value="4 ημ" style="rounded=0;whiteSpace=wrap;html=1;labelBackgroundColor=none;fillColor=#dae8fc;strokeColor=#6c8ebf;strokeWidth=2;fontSize=13;fontFamily=Verdana;" parent="JGt1HLMFAKdLXa0e5AWq-41" vertex="1">
          <mxGeometry x="120" width="60" height="40" as="geometry" />
        </mxCell>
        <mxCell id="JGt1HLMFAKdLXa0e5AWq-48" value="04/06/2024" style="rounded=0;whiteSpace=wrap;html=1;labelBackgroundColor=none;fillColor=#dae8fc;strokeColor=#6c8ebf;strokeWidth=2;fontSize=13;fontFamily=Verdana;" parent="JGt1HLMFAKdLXa0e5AWq-41" vertex="1">
          <mxGeometry x="120" y="80" width="120" height="40" as="geometry" />
        </mxCell>
        <mxCell id="JGt1HLMFAKdLXa0e5AWq-49" value="" style="group;labelBackgroundColor=none;rounded=0;fillColor=#dae8fc;strokeColor=#6c8ebf;strokeWidth=2;fontSize=13;fontFamily=Verdana;textShadow=0;spacingLeft=6;" parent="1" vertex="1" connectable="0">
          <mxGeometry x="1320" y="1200" width="240" height="120" as="geometry" />
        </mxCell>
        <mxCell id="JGt1HLMFAKdLXa0e5AWq-50" value="Domain-model-v1.0" style="rounded=0;whiteSpace=wrap;html=1;labelBackgroundColor=none;fillColor=#dae8fc;strokeColor=#6c8ebf;strokeWidth=2;fontSize=13;fontFamily=Verdana;textShadow=0;spacing=2;spacingTop=0;spacingLeft=0;shadow=1;" parent="JGt1HLMFAKdLXa0e5AWq-49" vertex="1">
          <mxGeometry width="240" height="120" as="geometry" />
        </mxCell>
        <mxCell id="JGt1HLMFAKdLXa0e5AWq-51" value="5 ημ" style="rounded=0;whiteSpace=wrap;html=1;labelBackgroundColor=none;fillColor=#dae8fc;strokeColor=#6c8ebf;strokeWidth=2;fontSize=13;fontFamily=Verdana;" parent="JGt1HLMFAKdLXa0e5AWq-49" vertex="1">
          <mxGeometry x="180" width="60" height="40" as="geometry" />
        </mxCell>
        <mxCell id="JGt1HLMFAKdLXa0e5AWq-52" value="01/06/2024" style="rounded=0;whiteSpace=wrap;html=1;labelBackgroundColor=none;fillColor=#dae8fc;strokeColor=#6c8ebf;strokeWidth=2;fontSize=13;fontFamily=Verdana;" parent="JGt1HLMFAKdLXa0e5AWq-49" vertex="1">
          <mxGeometry y="80" width="120" height="40" as="geometry" />
        </mxCell>
        <mxCell id="JGt1HLMFAKdLXa0e5AWq-53" value="022" style="rounded=0;whiteSpace=wrap;html=1;labelBackgroundColor=none;fillColor=#dae8fc;strokeColor=#6c8ebf;strokeWidth=2;fontSize=13;fontFamily=Verdana;" parent="JGt1HLMFAKdLXa0e5AWq-49" vertex="1">
          <mxGeometry width="60" height="40" as="geometry" />
        </mxCell>
        <mxCell id="JGt1HLMFAKdLXa0e5AWq-54" value="1 ημ" style="rounded=0;whiteSpace=wrap;html=1;labelBackgroundColor=none;fillColor=#dae8fc;strokeColor=#6c8ebf;strokeWidth=2;fontSize=13;fontFamily=Verdana;" parent="JGt1HLMFAKdLXa0e5AWq-49" vertex="1">
          <mxGeometry x="60" width="60" height="40" as="geometry" />
        </mxCell>
        <mxCell id="JGt1HLMFAKdLXa0e5AWq-55" value="3 ημ" style="rounded=0;whiteSpace=wrap;html=1;labelBackgroundColor=none;fillColor=#dae8fc;strokeColor=#6c8ebf;strokeWidth=2;fontSize=13;fontFamily=Verdana;" parent="JGt1HLMFAKdLXa0e5AWq-49" vertex="1">
          <mxGeometry x="120" width="60" height="40" as="geometry" />
        </mxCell>
        <mxCell id="JGt1HLMFAKdLXa0e5AWq-56" value="03/06/2024" style="rounded=0;whiteSpace=wrap;html=1;labelBackgroundColor=none;fillColor=#dae8fc;strokeColor=#6c8ebf;strokeWidth=2;fontSize=13;fontFamily=Verdana;" parent="JGt1HLMFAKdLXa0e5AWq-49" vertex="1">
          <mxGeometry x="120" y="80" width="120" height="40" as="geometry" />
        </mxCell>
        <mxCell id="JGt1HLMFAKdLXa0e5AWq-57" value="" style="group;labelBackgroundColor=none;rounded=0;fillColor=#dae8fc;strokeColor=#6c8ebf;strokeWidth=2;fontSize=13;fontFamily=Verdana;textShadow=0;spacingLeft=6;" parent="1" vertex="1" connectable="0">
          <mxGeometry x="1610" y="1362" width="240" height="122" as="geometry" />
        </mxCell>
        <mxCell id="JGt1HLMFAKdLXa0e5AWq-58" value="Use-cases-v1.0" style="rounded=0;whiteSpace=wrap;html=1;labelBackgroundColor=none;fillColor=#dae8fc;strokeColor=#6c8ebf;strokeWidth=2;fontSize=13;fontFamily=Verdana;textShadow=0;spacing=2;spacingTop=0;spacingLeft=0;shadow=1;" parent="JGt1HLMFAKdLXa0e5AWq-57" vertex="1">
          <mxGeometry width="240" height="122" as="geometry" />
        </mxCell>
        <mxCell id="JGt1HLMFAKdLXa0e5AWq-59" value="5 ημ" style="rounded=0;whiteSpace=wrap;html=1;labelBackgroundColor=none;fillColor=#dae8fc;strokeColor=#6c8ebf;strokeWidth=2;fontSize=13;fontFamily=Verdana;" parent="JGt1HLMFAKdLXa0e5AWq-57" vertex="1">
          <mxGeometry x="180" width="60" height="42" as="geometry" />
        </mxCell>
        <mxCell id="JGt1HLMFAKdLXa0e5AWq-60" value="07/06/2024" style="rounded=0;whiteSpace=wrap;html=1;labelBackgroundColor=none;fillColor=#dae8fc;strokeColor=#6c8ebf;strokeWidth=2;fontSize=13;fontFamily=Verdana;" parent="JGt1HLMFAKdLXa0e5AWq-57" vertex="1">
          <mxGeometry y="80" width="120" height="42" as="geometry" />
        </mxCell>
        <mxCell id="JGt1HLMFAKdLXa0e5AWq-61" value="025" style="rounded=0;whiteSpace=wrap;html=1;labelBackgroundColor=none;fillColor=#dae8fc;strokeColor=#6c8ebf;strokeWidth=2;fontSize=13;fontFamily=Verdana;" parent="JGt1HLMFAKdLXa0e5AWq-57" vertex="1">
          <mxGeometry width="60" height="42" as="geometry" />
        </mxCell>
        <mxCell id="JGt1HLMFAKdLXa0e5AWq-62" value="1 ημ" style="rounded=0;whiteSpace=wrap;html=1;labelBackgroundColor=none;fillColor=#dae8fc;strokeColor=#6c8ebf;strokeWidth=2;fontSize=13;fontFamily=Verdana;" parent="JGt1HLMFAKdLXa0e5AWq-57" vertex="1">
          <mxGeometry x="60" width="60" height="42" as="geometry" />
        </mxCell>
        <mxCell id="JGt1HLMFAKdLXa0e5AWq-63" value="3 ημ" style="rounded=0;whiteSpace=wrap;html=1;labelBackgroundColor=none;fillColor=#dae8fc;strokeColor=#6c8ebf;strokeWidth=2;fontSize=13;fontFamily=Verdana;" parent="JGt1HLMFAKdLXa0e5AWq-57" vertex="1">
          <mxGeometry x="120" width="60" height="42" as="geometry" />
        </mxCell>
        <mxCell id="JGt1HLMFAKdLXa0e5AWq-64" value="09/06/2024" style="rounded=0;whiteSpace=wrap;html=1;labelBackgroundColor=none;fillColor=#dae8fc;strokeColor=#6c8ebf;strokeWidth=2;fontSize=13;fontFamily=Verdana;" parent="JGt1HLMFAKdLXa0e5AWq-57" vertex="1">
          <mxGeometry x="120" y="80" width="120" height="42" as="geometry" />
        </mxCell>
        <mxCell id="JGt1HLMFAKdLXa0e5AWq-65" value="" style="group;labelBackgroundColor=none;rounded=0;fillColor=#dae8fc;strokeColor=#6c8ebf;strokeWidth=2;fontSize=13;fontFamily=Verdana;textShadow=0;spacingLeft=6;" parent="1" vertex="1" connectable="0">
          <mxGeometry x="1610" y="1200" width="240" height="120" as="geometry" />
        </mxCell>
        <mxCell id="JGt1HLMFAKdLXa0e5AWq-66" value="Class-diagram-v1.0" style="rounded=0;whiteSpace=wrap;html=1;labelBackgroundColor=none;fillColor=#dae8fc;strokeColor=#6c8ebf;strokeWidth=2;fontSize=13;fontFamily=Verdana;textShadow=0;spacing=2;spacingTop=0;spacingLeft=0;shadow=1;" parent="JGt1HLMFAKdLXa0e5AWq-65" vertex="1">
          <mxGeometry width="240" height="120" as="geometry" />
        </mxCell>
        <mxCell id="JGt1HLMFAKdLXa0e5AWq-67" value="5 ημ" style="rounded=0;whiteSpace=wrap;html=1;labelBackgroundColor=none;fillColor=#dae8fc;strokeColor=#6c8ebf;strokeWidth=2;fontSize=13;fontFamily=Verdana;" parent="JGt1HLMFAKdLXa0e5AWq-65" vertex="1">
          <mxGeometry x="180" width="60" height="40" as="geometry" />
        </mxCell>
        <mxCell id="JGt1HLMFAKdLXa0e5AWq-68" value="04/06/2024" style="rounded=0;whiteSpace=wrap;html=1;labelBackgroundColor=none;fillColor=#dae8fc;strokeColor=#6c8ebf;strokeWidth=2;fontSize=13;fontFamily=Verdana;" parent="JGt1HLMFAKdLXa0e5AWq-65" vertex="1">
          <mxGeometry y="80" width="120" height="40" as="geometry" />
        </mxCell>
        <mxCell id="JGt1HLMFAKdLXa0e5AWq-69" value="024" style="rounded=0;whiteSpace=wrap;html=1;labelBackgroundColor=none;fillColor=#dae8fc;strokeColor=#6c8ebf;strokeWidth=2;fontSize=13;fontFamily=Verdana;" parent="JGt1HLMFAKdLXa0e5AWq-65" vertex="1">
          <mxGeometry width="60" height="40" as="geometry" />
        </mxCell>
        <mxCell id="JGt1HLMFAKdLXa0e5AWq-70" value="1 ημ" style="rounded=0;whiteSpace=wrap;html=1;labelBackgroundColor=none;fillColor=#dae8fc;strokeColor=#6c8ebf;strokeWidth=2;fontSize=13;fontFamily=Verdana;" parent="JGt1HLMFAKdLXa0e5AWq-65" vertex="1">
          <mxGeometry x="60" width="60" height="40" as="geometry" />
        </mxCell>
        <mxCell id="JGt1HLMFAKdLXa0e5AWq-71" value="3 ημ" style="rounded=0;whiteSpace=wrap;html=1;labelBackgroundColor=none;fillColor=#dae8fc;strokeColor=#6c8ebf;strokeWidth=2;fontSize=13;fontFamily=Verdana;" parent="JGt1HLMFAKdLXa0e5AWq-65" vertex="1">
          <mxGeometry x="120" width="60" height="40" as="geometry" />
        </mxCell>
        <mxCell id="JGt1HLMFAKdLXa0e5AWq-72" value="06/06/2024" style="rounded=0;whiteSpace=wrap;html=1;labelBackgroundColor=none;fillColor=#dae8fc;strokeColor=#6c8ebf;strokeWidth=2;fontSize=13;fontFamily=Verdana;" parent="JGt1HLMFAKdLXa0e5AWq-65" vertex="1">
          <mxGeometry x="120" y="80" width="120" height="40" as="geometry" />
        </mxCell>
        <mxCell id="JGt1HLMFAKdLXa0e5AWq-73" value="" style="group;labelBackgroundColor=none;rounded=0;fillColor=#dae8fc;strokeColor=#6c8ebf;strokeWidth=2;fontSize=13;fontFamily=Verdana;textShadow=0;spacingLeft=6;" parent="1" vertex="1" connectable="0">
          <mxGeometry x="1320" y="1362" width="240" height="122" as="geometry" />
        </mxCell>
        <mxCell id="JGt1HLMFAKdLXa0e5AWq-74" value="Sequence-diagrams-v1.0" style="rounded=0;whiteSpace=wrap;html=1;labelBackgroundColor=none;fillColor=#dae8fc;strokeColor=#6c8ebf;strokeWidth=2;fontSize=13;fontFamily=Verdana;textShadow=0;spacing=2;spacingTop=0;spacingLeft=0;shadow=1;" parent="JGt1HLMFAKdLXa0e5AWq-73" vertex="1">
          <mxGeometry width="240" height="122" as="geometry" />
        </mxCell>
        <mxCell id="JGt1HLMFAKdLXa0e5AWq-75" value="5 ημ" style="rounded=0;whiteSpace=wrap;html=1;labelBackgroundColor=none;fillColor=#dae8fc;strokeColor=#6c8ebf;strokeWidth=2;fontSize=13;fontFamily=Verdana;" parent="JGt1HLMFAKdLXa0e5AWq-73" vertex="1">
          <mxGeometry x="180" width="60" height="42" as="geometry" />
        </mxCell>
        <mxCell id="JGt1HLMFAKdLXa0e5AWq-76" value="04/06/2024" style="rounded=0;whiteSpace=wrap;html=1;labelBackgroundColor=none;fillColor=#dae8fc;strokeColor=#6c8ebf;strokeWidth=2;fontSize=13;fontFamily=Verdana;" parent="JGt1HLMFAKdLXa0e5AWq-73" vertex="1">
          <mxGeometry y="80" width="120" height="42" as="geometry" />
        </mxCell>
        <mxCell id="JGt1HLMFAKdLXa0e5AWq-77" value="023" style="rounded=0;whiteSpace=wrap;html=1;labelBackgroundColor=none;fillColor=#dae8fc;strokeColor=#6c8ebf;strokeWidth=2;fontSize=13;fontFamily=Verdana;" parent="JGt1HLMFAKdLXa0e5AWq-73" vertex="1">
          <mxGeometry width="60" height="42" as="geometry" />
        </mxCell>
        <mxCell id="JGt1HLMFAKdLXa0e5AWq-78" value="1 ημ" style="rounded=0;whiteSpace=wrap;html=1;labelBackgroundColor=none;fillColor=#dae8fc;strokeColor=#6c8ebf;strokeWidth=2;fontSize=13;fontFamily=Verdana;" parent="JGt1HLMFAKdLXa0e5AWq-73" vertex="1">
          <mxGeometry x="60" width="60" height="42" as="geometry" />
        </mxCell>
        <mxCell id="JGt1HLMFAKdLXa0e5AWq-79" value="3 ημ" style="rounded=0;whiteSpace=wrap;html=1;labelBackgroundColor=none;fillColor=#dae8fc;strokeColor=#6c8ebf;strokeWidth=2;fontSize=13;fontFamily=Verdana;" parent="JGt1HLMFAKdLXa0e5AWq-73" vertex="1">
          <mxGeometry x="120" width="60" height="42" as="geometry" />
        </mxCell>
        <mxCell id="JGt1HLMFAKdLXa0e5AWq-80" value="06/06/2024" style="rounded=0;whiteSpace=wrap;html=1;labelBackgroundColor=none;fillColor=#dae8fc;strokeColor=#6c8ebf;strokeWidth=2;fontSize=13;fontFamily=Verdana;" parent="JGt1HLMFAKdLXa0e5AWq-73" vertex="1">
          <mxGeometry x="120" y="80" width="120" height="42" as="geometry" />
        </mxCell>
        <mxCell id="JGt1HLMFAKdLXa0e5AWq-81" value="" style="group;labelBackgroundColor=none;rounded=0;fillColor=#dae8fc;strokeColor=#6c8ebf;strokeWidth=2;fontSize=13;fontFamily=Verdana;textShadow=0;spacingLeft=6;" parent="1" vertex="1" connectable="0">
          <mxGeometry x="1040" y="1362" width="240" height="122" as="geometry" />
        </mxCell>
        <mxCell id="JGt1HLMFAKdLXa0e5AWq-82" value="Robustness-diagrams-v1.0" style="rounded=0;whiteSpace=wrap;html=1;labelBackgroundColor=none;fillColor=#dae8fc;strokeColor=#6c8ebf;strokeWidth=2;fontSize=13;fontFamily=Verdana;textShadow=0;spacing=2;spacingTop=0;spacingLeft=0;shadow=1;" parent="JGt1HLMFAKdLXa0e5AWq-81" vertex="1">
          <mxGeometry width="240" height="122" as="geometry" />
        </mxCell>
        <mxCell id="JGt1HLMFAKdLXa0e5AWq-83" value="5 ημ" style="rounded=0;whiteSpace=wrap;html=1;labelBackgroundColor=none;fillColor=#dae8fc;strokeColor=#6c8ebf;strokeWidth=2;fontSize=13;fontFamily=Verdana;" parent="JGt1HLMFAKdLXa0e5AWq-81" vertex="1">
          <mxGeometry x="180" width="60" height="42" as="geometry" />
        </mxCell>
        <mxCell id="JGt1HLMFAKdLXa0e5AWq-84" value="01/06/2024" style="rounded=0;whiteSpace=wrap;html=1;labelBackgroundColor=none;fillColor=#dae8fc;strokeColor=#6c8ebf;strokeWidth=2;fontSize=13;fontFamily=Verdana;" parent="JGt1HLMFAKdLXa0e5AWq-81" vertex="1">
          <mxGeometry y="80" width="120" height="42" as="geometry" />
        </mxCell>
        <mxCell id="JGt1HLMFAKdLXa0e5AWq-85" value="018" style="rounded=0;whiteSpace=wrap;html=1;labelBackgroundColor=none;fillColor=#dae8fc;strokeColor=#6c8ebf;strokeWidth=2;fontSize=13;fontFamily=Verdana;" parent="JGt1HLMFAKdLXa0e5AWq-81" vertex="1">
          <mxGeometry width="60" height="42" as="geometry" />
        </mxCell>
        <mxCell id="JGt1HLMFAKdLXa0e5AWq-86" value="1 ημ" style="rounded=0;whiteSpace=wrap;html=1;labelBackgroundColor=none;fillColor=#dae8fc;strokeColor=#6c8ebf;strokeWidth=2;fontSize=13;fontFamily=Verdana;" parent="JGt1HLMFAKdLXa0e5AWq-81" vertex="1">
          <mxGeometry x="60" width="60" height="42" as="geometry" />
        </mxCell>
        <mxCell id="JGt1HLMFAKdLXa0e5AWq-87" value="3 ημ" style="rounded=0;whiteSpace=wrap;html=1;labelBackgroundColor=none;fillColor=#dae8fc;strokeColor=#6c8ebf;strokeWidth=2;fontSize=13;fontFamily=Verdana;" parent="JGt1HLMFAKdLXa0e5AWq-81" vertex="1">
          <mxGeometry x="120" width="60" height="42" as="geometry" />
        </mxCell>
        <mxCell id="JGt1HLMFAKdLXa0e5AWq-88" value="03/06/2024" style="rounded=0;whiteSpace=wrap;html=1;labelBackgroundColor=none;fillColor=#dae8fc;strokeColor=#6c8ebf;strokeWidth=2;fontSize=13;fontFamily=Verdana;" parent="JGt1HLMFAKdLXa0e5AWq-81" vertex="1">
          <mxGeometry x="120" y="80" width="120" height="42" as="geometry" />
        </mxCell>
        <mxCell id="D4qjIRYr9ggsZmWQDk_U-1" value="" style="group;labelBackgroundColor=none;rounded=0;fillColor=#dae8fc;strokeColor=#6c8ebf;strokeWidth=2;fontSize=13;fontFamily=Verdana;textShadow=0;spacingLeft=6;" parent="1" vertex="1" connectable="0">
          <mxGeometry x="640" y="941" width="240" height="120" as="geometry" />
        </mxCell>
        <mxCell id="D4qjIRYr9ggsZmWQDk_U-2" value="Project-description-v0.2" style="rounded=0;whiteSpace=wrap;html=1;labelBackgroundColor=none;fillColor=#dae8fc;strokeColor=#6c8ebf;strokeWidth=2;fontSize=13;fontFamily=Verdana;textShadow=0;spacing=2;spacingTop=0;spacingLeft=0;shadow=1;" parent="D4qjIRYr9ggsZmWQDk_U-1" vertex="1">
          <mxGeometry width="240" height="120" as="geometry" />
        </mxCell>
        <mxCell id="D4qjIRYr9ggsZmWQDk_U-3" value="5 ημ" style="rounded=0;whiteSpace=wrap;html=1;labelBackgroundColor=none;fillColor=#dae8fc;strokeColor=#6c8ebf;strokeWidth=2;fontSize=13;fontFamily=Verdana;" parent="D4qjIRYr9ggsZmWQDk_U-1" vertex="1">
          <mxGeometry x="180" width="60" height="40" as="geometry" />
        </mxCell>
        <mxCell id="D4qjIRYr9ggsZmWQDk_U-4" value="20/04/2024" style="rounded=0;whiteSpace=wrap;html=1;labelBackgroundColor=none;fillColor=#dae8fc;strokeColor=#6c8ebf;strokeWidth=2;fontSize=13;fontFamily=Verdana;" parent="D4qjIRYr9ggsZmWQDk_U-1" vertex="1">
          <mxGeometry y="80" width="120" height="40" as="geometry" />
        </mxCell>
        <mxCell id="D4qjIRYr9ggsZmWQDk_U-5" value="015" style="rounded=0;whiteSpace=wrap;html=1;labelBackgroundColor=none;fillColor=#dae8fc;strokeColor=#6c8ebf;strokeWidth=2;fontSize=13;fontFamily=Verdana;" parent="D4qjIRYr9ggsZmWQDk_U-1" vertex="1">
          <mxGeometry width="60" height="40" as="geometry" />
        </mxCell>
        <mxCell id="D4qjIRYr9ggsZmWQDk_U-6" value="1 ημ" style="rounded=0;whiteSpace=wrap;html=1;labelBackgroundColor=none;fillColor=#dae8fc;strokeColor=#6c8ebf;strokeWidth=2;fontSize=13;fontFamily=Verdana;" parent="D4qjIRYr9ggsZmWQDk_U-1" vertex="1">
          <mxGeometry x="60" width="60" height="40" as="geometry" />
        </mxCell>
        <mxCell id="D4qjIRYr9ggsZmWQDk_U-7" value="4 ημ" style="rounded=0;whiteSpace=wrap;html=1;labelBackgroundColor=none;fillColor=#dae8fc;strokeColor=#6c8ebf;strokeWidth=2;fontSize=13;fontFamily=Verdana;" parent="D4qjIRYr9ggsZmWQDk_U-1" vertex="1">
          <mxGeometry x="120" width="60" height="40" as="geometry" />
        </mxCell>
        <mxCell id="D4qjIRYr9ggsZmWQDk_U-8" value="23/04/2024" style="rounded=0;whiteSpace=wrap;html=1;labelBackgroundColor=none;fillColor=#dae8fc;strokeColor=#6c8ebf;strokeWidth=2;fontSize=13;fontFamily=Verdana;" parent="D4qjIRYr9ggsZmWQDk_U-1" vertex="1">
          <mxGeometry x="120" y="80" width="120" height="40" as="geometry" />
        </mxCell>
        <mxCell id="D4qjIRYr9ggsZmWQDk_U-9" style="edgeStyle=orthogonalEdgeStyle;rounded=0;orthogonalLoop=1;jettySize=auto;html=1;exitX=0;exitY=0.5;exitDx=0;exitDy=0;entryX=1;entryY=0.5;entryDx=0;entryDy=0;endArrow=classic;endFill=1;fillColor=#f8cecc;strokeColor=#b85450;strokeWidth=3;" parent="1" source="9AGvx3cEIuA70uI9kTlu-132" target="D4qjIRYr9ggsZmWQDk_U-2" edge="1">
          <mxGeometry relative="1" as="geometry" />
        </mxCell>
        <mxCell id="D4qjIRYr9ggsZmWQDk_U-10" style="edgeStyle=orthogonalEdgeStyle;rounded=0;orthogonalLoop=1;jettySize=auto;html=1;exitX=0;exitY=0.5;exitDx=0;exitDy=0;entryX=1;entryY=0.5;entryDx=0;entryDy=0;endArrow=classic;endFill=1;" parent="1" source="9AGvx3cEIuA70uI9kTlu-124" target="9AGvx3cEIuA70uI9kTlu-143" edge="1">
          <mxGeometry relative="1" as="geometry" />
        </mxCell>
        <mxCell id="D4qjIRYr9ggsZmWQDk_U-11" style="edgeStyle=orthogonalEdgeStyle;rounded=0;orthogonalLoop=1;jettySize=auto;html=1;exitX=0;exitY=0.5;exitDx=0;exitDy=0;entryX=1;entryY=0.5;entryDx=0;entryDy=0;endArrow=classic;endFill=1;" parent="1" source="JGt1HLMFAKdLXa0e5AWq-10" target="9AGvx3cEIuA70uI9kTlu-143" edge="1">
          <mxGeometry relative="1" as="geometry">
            <Array as="points">
              <mxPoint x="600" y="740" />
              <mxPoint x="600" y="835" />
            </Array>
          </mxGeometry>
        </mxCell>
        <mxCell id="D4qjIRYr9ggsZmWQDk_U-13" style="edgeStyle=orthogonalEdgeStyle;rounded=0;orthogonalLoop=1;jettySize=auto;html=1;exitX=0;exitY=0.5;exitDx=0;exitDy=0;entryX=1;entryY=0.5;entryDx=0;entryDy=0;endArrow=classic;endFill=1;fillColor=#f8cecc;strokeColor=#b85450;strokeWidth=3;" parent="1" source="D4qjIRYr9ggsZmWQDk_U-2" target="9AGvx3cEIuA70uI9kTlu-143" edge="1">
          <mxGeometry relative="1" as="geometry" />
        </mxCell>
        <mxCell id="D4qjIRYr9ggsZmWQDk_U-16" style="edgeStyle=orthogonalEdgeStyle;rounded=0;orthogonalLoop=1;jettySize=auto;html=1;exitX=1;exitY=0.5;exitDx=0;exitDy=0;entryX=0;entryY=0.5;entryDx=0;entryDy=0;endArrow=classic;endFill=1;" parent="1" source="9AGvx3cEIuA70uI9kTlu-33" target="9AGvx3cEIuA70uI9kTlu-79" edge="1">
          <mxGeometry relative="1" as="geometry">
            <Array as="points">
              <mxPoint x="1360" y="140" />
              <mxPoint x="1360" y="460" />
            </Array>
          </mxGeometry>
        </mxCell>
        <mxCell id="D4qjIRYr9ggsZmWQDk_U-17" style="edgeStyle=orthogonalEdgeStyle;rounded=0;orthogonalLoop=1;jettySize=auto;html=1;exitX=1;exitY=0.5;exitDx=0;exitDy=0;entryX=0;entryY=0.5;entryDx=0;entryDy=0;endArrow=classic;endFill=1;" parent="1" source="9AGvx3cEIuA70uI9kTlu-61" target="9AGvx3cEIuA70uI9kTlu-79" edge="1">
          <mxGeometry relative="1" as="geometry">
            <Array as="points">
              <mxPoint x="1360" y="300" />
              <mxPoint x="1360" y="460" />
            </Array>
          </mxGeometry>
        </mxCell>
        <mxCell id="D4qjIRYr9ggsZmWQDk_U-20" style="edgeStyle=orthogonalEdgeStyle;rounded=0;orthogonalLoop=1;jettySize=auto;html=1;exitX=1;exitY=0.5;exitDx=0;exitDy=0;entryX=0;entryY=0.5;entryDx=0;entryDy=0;" parent="1" source="9AGvx3cEIuA70uI9kTlu-71" target="9AGvx3cEIuA70uI9kTlu-79" edge="1">
          <mxGeometry relative="1" as="geometry">
            <Array as="points">
              <mxPoint x="1360" y="620" />
              <mxPoint x="1360" y="460" />
            </Array>
          </mxGeometry>
        </mxCell>
        <mxCell id="D4qjIRYr9ggsZmWQDk_U-31" value="&lt;font style=&quot;font-size: 13px;&quot; face=&quot;Verdana&quot;&gt;4η&lt;/font&gt;&lt;div style=&quot;font-size: 13px;&quot;&gt;&lt;font face=&quot;Verdana&quot; style=&quot;font-size: 13px;&quot;&gt;Παράδοση&lt;/font&gt;&lt;/div&gt;" style="rhombus;whiteSpace=wrap;html=1;fillColor=#fff2cc;strokeColor=#d6b656;" parent="1" vertex="1">
          <mxGeometry x="1970" y="1405" width="110" height="112" as="geometry" />
        </mxCell>
        <mxCell id="D4qjIRYr9ggsZmWQDk_U-70" style="edgeStyle=orthogonalEdgeStyle;rounded=0;orthogonalLoop=1;jettySize=auto;html=1;exitX=1;exitY=0.5;exitDx=0;exitDy=0;entryX=0;entryY=0.5;entryDx=0;entryDy=0;" parent="1" source="D4qjIRYr9ggsZmWQDk_U-32" target="JGt1HLMFAKdLXa0e5AWq-50" edge="1">
          <mxGeometry relative="1" as="geometry">
            <Array as="points">
              <mxPoint x="1000" y="1306" />
              <mxPoint x="1000" y="1260" />
            </Array>
          </mxGeometry>
        </mxCell>
        <mxCell id="D4qjIRYr9ggsZmWQDk_U-109" style="edgeStyle=orthogonalEdgeStyle;rounded=0;orthogonalLoop=1;jettySize=auto;html=1;exitX=1;exitY=0.5;exitDx=0;exitDy=0;entryX=0;entryY=0.5;entryDx=0;entryDy=0;" parent="1" source="D4qjIRYr9ggsZmWQDk_U-32" target="D4qjIRYr9ggsZmWQDk_U-83" edge="1">
          <mxGeometry relative="1" as="geometry" />
        </mxCell>
        <mxCell id="D4qjIRYr9ggsZmWQDk_U-110" style="edgeStyle=orthogonalEdgeStyle;rounded=0;orthogonalLoop=1;jettySize=auto;html=1;exitX=1;exitY=0.5;exitDx=0;exitDy=0;entryX=0;entryY=0.5;entryDx=0;entryDy=0;" parent="1" source="D4qjIRYr9ggsZmWQDk_U-32" target="D4qjIRYr9ggsZmWQDk_U-91" edge="1">
          <mxGeometry relative="1" as="geometry" />
        </mxCell>
        <mxCell id="nv-TkFWbTfWB4gyP5LMb-11" style="edgeStyle=orthogonalEdgeStyle;rounded=0;orthogonalLoop=1;jettySize=auto;html=1;exitX=1;exitY=0.5;exitDx=0;exitDy=0;entryX=0;entryY=0.5;entryDx=0;entryDy=0;" edge="1" parent="1" source="D4qjIRYr9ggsZmWQDk_U-32" target="JGt1HLMFAKdLXa0e5AWq-42">
          <mxGeometry relative="1" as="geometry">
            <Array as="points">
              <mxPoint x="1000" y="1306" />
              <mxPoint x="1000" y="1100" />
            </Array>
          </mxGeometry>
        </mxCell>
        <mxCell id="nv-TkFWbTfWB4gyP5LMb-13" style="edgeStyle=orthogonalEdgeStyle;rounded=0;orthogonalLoop=1;jettySize=auto;html=1;exitX=1;exitY=0.5;exitDx=0;exitDy=0;entryX=0;entryY=0.5;entryDx=0;entryDy=0;" edge="1" parent="1" source="D4qjIRYr9ggsZmWQDk_U-32" target="nv-TkFWbTfWB4gyP5LMb-2">
          <mxGeometry relative="1" as="geometry" />
        </mxCell>
        <mxCell id="D4qjIRYr9ggsZmWQDk_U-32" value="&lt;font style=&quot;font-size: 13px;&quot; face=&quot;Verdana&quot;&gt;3η&lt;/font&gt;&lt;div style=&quot;font-size: 13px;&quot;&gt;&lt;font face=&quot;Verdana&quot; style=&quot;font-size: 13px;&quot;&gt;Παράδοση&lt;/font&gt;&lt;/div&gt;" style="rhombus;whiteSpace=wrap;html=1;fillColor=#fff2cc;strokeColor=#d6b656;" parent="1" vertex="1">
          <mxGeometry x="850" y="1250" width="110" height="112" as="geometry" />
        </mxCell>
        <mxCell id="D4qjIRYr9ggsZmWQDk_U-50" value="" style="group;labelBackgroundColor=none;rounded=0;fillColor=#dae8fc;strokeColor=#6c8ebf;strokeWidth=2;fontSize=13;fontFamily=Verdana;textShadow=0;spacingLeft=6;" parent="1" vertex="1" connectable="0">
          <mxGeometry x="490" y="1320" width="240" height="122" as="geometry" />
        </mxCell>
        <mxCell id="D4qjIRYr9ggsZmWQDk_U-51" value="Team-plan-v0.3" style="rounded=0;whiteSpace=wrap;html=1;labelBackgroundColor=none;fillColor=#dae8fc;strokeColor=#6c8ebf;strokeWidth=2;fontSize=13;fontFamily=Verdana;textShadow=0;spacing=2;spacingTop=0;spacingLeft=0;shadow=1;" parent="D4qjIRYr9ggsZmWQDk_U-50" vertex="1">
          <mxGeometry width="240" height="122" as="geometry" />
        </mxCell>
        <mxCell id="D4qjIRYr9ggsZmWQDk_U-52" value="4 ημ" style="rounded=0;whiteSpace=wrap;html=1;labelBackgroundColor=none;fillColor=#dae8fc;strokeColor=#6c8ebf;strokeWidth=2;fontSize=13;fontFamily=Verdana;" parent="D4qjIRYr9ggsZmWQDk_U-50" vertex="1">
          <mxGeometry x="180" width="60" height="42" as="geometry" />
        </mxCell>
        <mxCell id="D4qjIRYr9ggsZmWQDk_U-53" value="01/05/2024" style="rounded=0;whiteSpace=wrap;html=1;labelBackgroundColor=none;fillColor=#dae8fc;strokeColor=#6c8ebf;strokeWidth=2;fontSize=13;fontFamily=Verdana;" parent="D4qjIRYr9ggsZmWQDk_U-50" vertex="1">
          <mxGeometry y="80" width="120" height="42" as="geometry" />
        </mxCell>
        <mxCell id="D4qjIRYr9ggsZmWQDk_U-54" value="017" style="rounded=0;whiteSpace=wrap;html=1;labelBackgroundColor=none;fillColor=#dae8fc;strokeColor=#6c8ebf;strokeWidth=2;fontSize=13;fontFamily=Verdana;" parent="D4qjIRYr9ggsZmWQDk_U-50" vertex="1">
          <mxGeometry width="60" height="42" as="geometry" />
        </mxCell>
        <mxCell id="D4qjIRYr9ggsZmWQDk_U-55" value="1 ημ" style="rounded=0;whiteSpace=wrap;html=1;labelBackgroundColor=none;fillColor=#dae8fc;strokeColor=#6c8ebf;strokeWidth=2;fontSize=13;fontFamily=Verdana;" parent="D4qjIRYr9ggsZmWQDk_U-50" vertex="1">
          <mxGeometry x="60" width="60" height="42" as="geometry" />
        </mxCell>
        <mxCell id="D4qjIRYr9ggsZmWQDk_U-56" value="3 ημ" style="rounded=0;whiteSpace=wrap;html=1;labelBackgroundColor=none;fillColor=#dae8fc;strokeColor=#6c8ebf;strokeWidth=2;fontSize=13;fontFamily=Verdana;" parent="D4qjIRYr9ggsZmWQDk_U-50" vertex="1">
          <mxGeometry x="120" width="60" height="42" as="geometry" />
        </mxCell>
        <mxCell id="D4qjIRYr9ggsZmWQDk_U-57" value="03/05/2024" style="rounded=0;whiteSpace=wrap;html=1;labelBackgroundColor=none;fillColor=#dae8fc;strokeColor=#6c8ebf;strokeWidth=2;fontSize=13;fontFamily=Verdana;" parent="D4qjIRYr9ggsZmWQDk_U-50" vertex="1">
          <mxGeometry x="120" y="80" width="120" height="42" as="geometry" />
        </mxCell>
        <mxCell id="D4qjIRYr9ggsZmWQDk_U-68" style="edgeStyle=orthogonalEdgeStyle;rounded=0;orthogonalLoop=1;jettySize=auto;html=1;exitX=1;exitY=0.5;exitDx=0;exitDy=0;" parent="1" source="D4qjIRYr9ggsZmWQDk_U-51" target="D4qjIRYr9ggsZmWQDk_U-32" edge="1">
          <mxGeometry relative="1" as="geometry" />
        </mxCell>
        <mxCell id="D4qjIRYr9ggsZmWQDk_U-72" style="edgeStyle=orthogonalEdgeStyle;rounded=0;orthogonalLoop=1;jettySize=auto;html=1;exitX=1;exitY=0.5;exitDx=0;exitDy=0;entryX=0;entryY=0.5;entryDx=0;entryDy=0;" parent="1" source="JGt1HLMFAKdLXa0e5AWq-50" target="JGt1HLMFAKdLXa0e5AWq-66" edge="1">
          <mxGeometry relative="1" as="geometry" />
        </mxCell>
        <mxCell id="D4qjIRYr9ggsZmWQDk_U-73" style="edgeStyle=orthogonalEdgeStyle;rounded=0;orthogonalLoop=1;jettySize=auto;html=1;exitX=1;exitY=0.5;exitDx=0;exitDy=0;entryX=0;entryY=0.5;entryDx=0;entryDy=0;fillColor=#f8cecc;strokeColor=#b85450;strokeWidth=3;" parent="1" source="JGt1HLMFAKdLXa0e5AWq-82" target="JGt1HLMFAKdLXa0e5AWq-74" edge="1">
          <mxGeometry relative="1" as="geometry" />
        </mxCell>
        <mxCell id="D4qjIRYr9ggsZmWQDk_U-74" style="edgeStyle=orthogonalEdgeStyle;rounded=0;orthogonalLoop=1;jettySize=auto;html=1;exitX=1;exitY=0.5;exitDx=0;exitDy=0;entryX=0;entryY=0.5;entryDx=0;entryDy=0;fillColor=#f8cecc;strokeColor=#b85450;strokeWidth=3;" parent="1" source="JGt1HLMFAKdLXa0e5AWq-74" target="JGt1HLMFAKdLXa0e5AWq-58" edge="1">
          <mxGeometry relative="1" as="geometry" />
        </mxCell>
        <mxCell id="D4qjIRYr9ggsZmWQDk_U-81" style="edgeStyle=orthogonalEdgeStyle;rounded=0;orthogonalLoop=1;jettySize=auto;html=1;exitX=1;exitY=0.5;exitDx=0;exitDy=0;entryX=0;entryY=0.5;entryDx=0;entryDy=0;" parent="1" source="JGt1HLMFAKdLXa0e5AWq-50" target="JGt1HLMFAKdLXa0e5AWq-61" edge="1">
          <mxGeometry relative="1" as="geometry" />
        </mxCell>
        <mxCell id="D4qjIRYr9ggsZmWQDk_U-82" value="" style="group;labelBackgroundColor=none;rounded=0;fillColor=#dae8fc;strokeColor=#6c8ebf;strokeWidth=2;fontSize=13;fontFamily=Verdana;textShadow=0;spacingLeft=6;" parent="1" vertex="1" connectable="0">
          <mxGeometry x="1040" y="1520" width="240" height="120" as="geometry" />
        </mxCell>
        <mxCell id="D4qjIRYr9ggsZmWQDk_U-83" value="Risk-assessment-v1.0" style="rounded=0;whiteSpace=wrap;html=1;labelBackgroundColor=none;fillColor=#dae8fc;strokeColor=#6c8ebf;strokeWidth=2;fontSize=13;fontFamily=Verdana;textShadow=0;spacing=2;spacingTop=0;spacingLeft=0;shadow=1;" parent="D4qjIRYr9ggsZmWQDk_U-82" vertex="1">
          <mxGeometry width="240" height="120" as="geometry" />
        </mxCell>
        <mxCell id="D4qjIRYr9ggsZmWQDk_U-84" value="3 ημ" style="rounded=0;whiteSpace=wrap;html=1;labelBackgroundColor=none;fillColor=#dae8fc;strokeColor=#6c8ebf;strokeWidth=2;fontSize=13;fontFamily=Verdana;" parent="D4qjIRYr9ggsZmWQDk_U-82" vertex="1">
          <mxGeometry x="180" width="60" height="40" as="geometry" />
        </mxCell>
        <mxCell id="D4qjIRYr9ggsZmWQDk_U-85" value="01/06/2024" style="rounded=0;whiteSpace=wrap;html=1;labelBackgroundColor=none;fillColor=#dae8fc;strokeColor=#6c8ebf;strokeWidth=2;fontSize=13;fontFamily=Verdana;" parent="D4qjIRYr9ggsZmWQDk_U-82" vertex="1">
          <mxGeometry y="80" width="120" height="40" as="geometry" />
        </mxCell>
        <mxCell id="D4qjIRYr9ggsZmWQDk_U-86" value="019" style="rounded=0;whiteSpace=wrap;html=1;labelBackgroundColor=none;fillColor=#dae8fc;strokeColor=#6c8ebf;strokeWidth=2;fontSize=13;fontFamily=Verdana;" parent="D4qjIRYr9ggsZmWQDk_U-82" vertex="1">
          <mxGeometry width="60" height="40" as="geometry" />
        </mxCell>
        <mxCell id="D4qjIRYr9ggsZmWQDk_U-87" value="1 ημ" style="rounded=0;whiteSpace=wrap;html=1;labelBackgroundColor=none;fillColor=#dae8fc;strokeColor=#6c8ebf;strokeWidth=2;fontSize=13;fontFamily=Verdana;" parent="D4qjIRYr9ggsZmWQDk_U-82" vertex="1">
          <mxGeometry x="60" width="60" height="40" as="geometry" />
        </mxCell>
        <mxCell id="D4qjIRYr9ggsZmWQDk_U-88" value="2 ημ" style="rounded=0;whiteSpace=wrap;html=1;labelBackgroundColor=none;fillColor=#dae8fc;strokeColor=#6c8ebf;strokeWidth=2;fontSize=13;fontFamily=Verdana;" parent="D4qjIRYr9ggsZmWQDk_U-82" vertex="1">
          <mxGeometry x="120" width="60" height="40" as="geometry" />
        </mxCell>
        <mxCell id="D4qjIRYr9ggsZmWQDk_U-89" value="02/06/2024" style="rounded=0;whiteSpace=wrap;html=1;labelBackgroundColor=none;fillColor=#dae8fc;strokeColor=#6c8ebf;strokeWidth=2;fontSize=13;fontFamily=Verdana;" parent="D4qjIRYr9ggsZmWQDk_U-82" vertex="1">
          <mxGeometry x="120" y="80" width="120" height="40" as="geometry" />
        </mxCell>
        <mxCell id="D4qjIRYr9ggsZmWQDk_U-90" value="" style="group;labelBackgroundColor=none;rounded=0;fillColor=#dae8fc;strokeColor=#6c8ebf;strokeWidth=2;fontSize=13;fontFamily=Verdana;textShadow=0;spacingLeft=6;" parent="1" vertex="1" connectable="0">
          <mxGeometry x="1040" y="1680" width="240" height="120" as="geometry" />
        </mxCell>
        <mxCell id="D4qjIRYr9ggsZmWQDk_U-91" value="Project-plan-v1.0" style="rounded=0;whiteSpace=wrap;html=1;labelBackgroundColor=none;fillColor=#dae8fc;strokeColor=#6c8ebf;strokeWidth=2;fontSize=13;fontFamily=Verdana;textShadow=0;spacing=2;spacingTop=0;spacingLeft=0;shadow=1;" parent="D4qjIRYr9ggsZmWQDk_U-90" vertex="1">
          <mxGeometry width="240" height="120" as="geometry" />
        </mxCell>
        <mxCell id="D4qjIRYr9ggsZmWQDk_U-92" value="6 ημ" style="rounded=0;whiteSpace=wrap;html=1;labelBackgroundColor=none;fillColor=#dae8fc;strokeColor=#6c8ebf;strokeWidth=2;fontSize=13;fontFamily=Verdana;" parent="D4qjIRYr9ggsZmWQDk_U-90" vertex="1">
          <mxGeometry x="180" width="60" height="40" as="geometry" />
        </mxCell>
        <mxCell id="D4qjIRYr9ggsZmWQDk_U-93" value="01/06/2024" style="rounded=0;whiteSpace=wrap;html=1;labelBackgroundColor=none;fillColor=#dae8fc;strokeColor=#6c8ebf;strokeWidth=2;fontSize=13;fontFamily=Verdana;" parent="D4qjIRYr9ggsZmWQDk_U-90" vertex="1">
          <mxGeometry y="80" width="120" height="40" as="geometry" />
        </mxCell>
        <mxCell id="D4qjIRYr9ggsZmWQDk_U-94" value="020" style="rounded=0;whiteSpace=wrap;html=1;labelBackgroundColor=none;fillColor=#dae8fc;strokeColor=#6c8ebf;strokeWidth=2;fontSize=13;fontFamily=Verdana;" parent="D4qjIRYr9ggsZmWQDk_U-90" vertex="1">
          <mxGeometry width="60" height="40" as="geometry" />
        </mxCell>
        <mxCell id="D4qjIRYr9ggsZmWQDk_U-95" value="1 ημ" style="rounded=0;whiteSpace=wrap;html=1;labelBackgroundColor=none;fillColor=#dae8fc;strokeColor=#6c8ebf;strokeWidth=2;fontSize=13;fontFamily=Verdana;" parent="D4qjIRYr9ggsZmWQDk_U-90" vertex="1">
          <mxGeometry x="60" width="60" height="40" as="geometry" />
        </mxCell>
        <mxCell id="D4qjIRYr9ggsZmWQDk_U-96" value="3 ημ" style="rounded=0;whiteSpace=wrap;html=1;labelBackgroundColor=none;fillColor=#dae8fc;strokeColor=#6c8ebf;strokeWidth=2;fontSize=13;fontFamily=Verdana;" parent="D4qjIRYr9ggsZmWQDk_U-90" vertex="1">
          <mxGeometry x="120" width="60" height="40" as="geometry" />
        </mxCell>
        <mxCell id="D4qjIRYr9ggsZmWQDk_U-97" value="03/06/2024" style="rounded=0;whiteSpace=wrap;html=1;labelBackgroundColor=none;fillColor=#dae8fc;strokeColor=#6c8ebf;strokeWidth=2;fontSize=13;fontFamily=Verdana;" parent="D4qjIRYr9ggsZmWQDk_U-90" vertex="1">
          <mxGeometry x="120" y="80" width="120" height="40" as="geometry" />
        </mxCell>
        <mxCell id="D4qjIRYr9ggsZmWQDk_U-112" style="edgeStyle=orthogonalEdgeStyle;rounded=0;orthogonalLoop=1;jettySize=auto;html=1;exitX=1;exitY=0.5;exitDx=0;exitDy=0;entryX=0;entryY=0.5;entryDx=0;entryDy=0;" parent="1" source="JGt1HLMFAKdLXa0e5AWq-66" target="D4qjIRYr9ggsZmWQDk_U-31" edge="1">
          <mxGeometry relative="1" as="geometry" />
        </mxCell>
        <mxCell id="D4qjIRYr9ggsZmWQDk_U-18" style="edgeStyle=orthogonalEdgeStyle;rounded=0;orthogonalLoop=1;jettySize=auto;html=1;exitX=1;exitY=0.5;exitDx=0;exitDy=0;entryX=0;entryY=0.5;entryDx=0;entryDy=0;fillColor=#f8cecc;strokeColor=#b85450;strokeWidth=3;" parent="1" source="9AGvx3cEIuA70uI9kTlu-51" target="9AGvx3cEIuA70uI9kTlu-79" edge="1">
          <mxGeometry relative="1" as="geometry" />
        </mxCell>
        <mxCell id="JGt1HLMFAKdLXa0e5AWq-23" style="edgeStyle=orthogonalEdgeStyle;rounded=0;orthogonalLoop=1;jettySize=auto;html=1;exitX=1;exitY=0.5;exitDx=0;exitDy=0;entryX=1;entryY=0.5;entryDx=0;entryDy=0;fillColor=#f8cecc;strokeColor=#b85450;strokeWidth=3;" parent="1" source="9AGvx3cEIuA70uI9kTlu-22" target="9AGvx3cEIuA70uI9kTlu-107" edge="1">
          <mxGeometry relative="1" as="geometry">
            <Array as="points">
              <mxPoint x="1870" y="460" />
              <mxPoint x="1870" y="931" />
            </Array>
          </mxGeometry>
        </mxCell>
        <mxCell id="D4qjIRYr9ggsZmWQDk_U-14" style="edgeStyle=orthogonalEdgeStyle;rounded=0;orthogonalLoop=1;jettySize=auto;html=1;exitX=0;exitY=0.5;exitDx=0;exitDy=0;entryX=0;entryY=0.5;entryDx=0;entryDy=0;fillColor=#f8cecc;strokeColor=#b85450;strokeWidth=3;" parent="1" source="9AGvx3cEIuA70uI9kTlu-143" target="JGt1HLMFAKdLXa0e5AWq-34" edge="1">
          <mxGeometry relative="1" as="geometry" />
        </mxCell>
        <mxCell id="D4qjIRYr9ggsZmWQDk_U-49" style="edgeStyle=orthogonalEdgeStyle;rounded=0;orthogonalLoop=1;jettySize=auto;html=1;exitX=1;exitY=0.5;exitDx=0;exitDy=0;fillColor=#f8cecc;strokeColor=#b85450;strokeWidth=3;" parent="1" source="JGt1HLMFAKdLXa0e5AWq-34" target="D4qjIRYr9ggsZmWQDk_U-32" edge="1">
          <mxGeometry relative="1" as="geometry" />
        </mxCell>
        <mxCell id="D4qjIRYr9ggsZmWQDk_U-71" style="edgeStyle=orthogonalEdgeStyle;rounded=0;orthogonalLoop=1;jettySize=auto;html=1;exitX=1;exitY=0.5;exitDx=0;exitDy=0;entryX=0;entryY=0.5;entryDx=0;entryDy=0;fillColor=#f8cecc;strokeColor=#b85450;strokeWidth=3;" parent="1" source="D4qjIRYr9ggsZmWQDk_U-32" target="JGt1HLMFAKdLXa0e5AWq-82" edge="1">
          <mxGeometry relative="1" as="geometry" />
        </mxCell>
        <mxCell id="nv-TkFWbTfWB4gyP5LMb-1" value="" style="group;labelBackgroundColor=none;rounded=0;fillColor=#dae8fc;strokeColor=#6c8ebf;strokeWidth=2;fontSize=13;fontFamily=Verdana;textShadow=0;spacingLeft=6;" vertex="1" connectable="0" parent="1">
          <mxGeometry x="1040" y="1840" width="240" height="120" as="geometry" />
        </mxCell>
        <mxCell id="nv-TkFWbTfWB4gyP5LMb-2" value="Project-description-v1.0" style="rounded=0;whiteSpace=wrap;html=1;labelBackgroundColor=none;fillColor=#dae8fc;strokeColor=#6c8ebf;strokeWidth=2;fontSize=13;fontFamily=Verdana;textShadow=0;spacing=2;spacingTop=0;spacingLeft=0;shadow=1;" vertex="1" parent="nv-TkFWbTfWB4gyP5LMb-1">
          <mxGeometry width="240" height="120" as="geometry" />
        </mxCell>
        <mxCell id="nv-TkFWbTfWB4gyP5LMb-3" value="5 ημ" style="rounded=0;whiteSpace=wrap;html=1;labelBackgroundColor=none;fillColor=#dae8fc;strokeColor=#6c8ebf;strokeWidth=2;fontSize=13;fontFamily=Verdana;" vertex="1" parent="nv-TkFWbTfWB4gyP5LMb-1">
          <mxGeometry x="180" width="60" height="40" as="geometry" />
        </mxCell>
        <mxCell id="nv-TkFWbTfWB4gyP5LMb-4" value="01/06/2024" style="rounded=0;whiteSpace=wrap;html=1;labelBackgroundColor=none;fillColor=#dae8fc;strokeColor=#6c8ebf;strokeWidth=2;fontSize=13;fontFamily=Verdana;" vertex="1" parent="nv-TkFWbTfWB4gyP5LMb-1">
          <mxGeometry y="80" width="120" height="40" as="geometry" />
        </mxCell>
        <mxCell id="nv-TkFWbTfWB4gyP5LMb-5" value="026" style="rounded=0;whiteSpace=wrap;html=1;labelBackgroundColor=none;fillColor=#dae8fc;strokeColor=#6c8ebf;strokeWidth=2;fontSize=13;fontFamily=Verdana;" vertex="1" parent="nv-TkFWbTfWB4gyP5LMb-1">
          <mxGeometry width="60" height="40" as="geometry" />
        </mxCell>
        <mxCell id="nv-TkFWbTfWB4gyP5LMb-6" value="1 ημ" style="rounded=0;whiteSpace=wrap;html=1;labelBackgroundColor=none;fillColor=#dae8fc;strokeColor=#6c8ebf;strokeWidth=2;fontSize=13;fontFamily=Verdana;" vertex="1" parent="nv-TkFWbTfWB4gyP5LMb-1">
          <mxGeometry x="60" width="60" height="40" as="geometry" />
        </mxCell>
        <mxCell id="nv-TkFWbTfWB4gyP5LMb-7" value="3 ημ" style="rounded=0;whiteSpace=wrap;html=1;labelBackgroundColor=none;fillColor=#dae8fc;strokeColor=#6c8ebf;strokeWidth=2;fontSize=13;fontFamily=Verdana;" vertex="1" parent="nv-TkFWbTfWB4gyP5LMb-1">
          <mxGeometry x="120" width="60" height="40" as="geometry" />
        </mxCell>
        <mxCell id="nv-TkFWbTfWB4gyP5LMb-8" value="03/06/2024" style="rounded=0;whiteSpace=wrap;html=1;labelBackgroundColor=none;fillColor=#dae8fc;strokeColor=#6c8ebf;strokeWidth=2;fontSize=13;fontFamily=Verdana;" vertex="1" parent="nv-TkFWbTfWB4gyP5LMb-1">
          <mxGeometry x="120" y="80" width="120" height="40" as="geometry" />
        </mxCell>
        <mxCell id="nv-TkFWbTfWB4gyP5LMb-12" style="edgeStyle=orthogonalEdgeStyle;rounded=0;orthogonalLoop=1;jettySize=auto;html=1;exitX=1;exitY=0.5;exitDx=0;exitDy=0;entryX=0;entryY=0.5;entryDx=0;entryDy=0;" edge="1" parent="1" source="D4qjIRYr9ggsZmWQDk_U-83" target="D4qjIRYr9ggsZmWQDk_U-31">
          <mxGeometry relative="1" as="geometry">
            <Array as="points">
              <mxPoint x="1910" y="1580" />
              <mxPoint x="1910" y="1461" />
            </Array>
          </mxGeometry>
        </mxCell>
        <mxCell id="nv-TkFWbTfWB4gyP5LMb-14" style="edgeStyle=orthogonalEdgeStyle;rounded=0;orthogonalLoop=1;jettySize=auto;html=1;exitX=1;exitY=0.5;exitDx=0;exitDy=0;entryX=0;entryY=0.5;entryDx=0;entryDy=0;" edge="1" parent="1" source="D4qjIRYr9ggsZmWQDk_U-91" target="D4qjIRYr9ggsZmWQDk_U-31">
          <mxGeometry relative="1" as="geometry">
            <Array as="points">
              <mxPoint x="1910" y="1740" />
              <mxPoint x="1910" y="1461" />
            </Array>
          </mxGeometry>
        </mxCell>
        <mxCell id="nv-TkFWbTfWB4gyP5LMb-15" style="edgeStyle=orthogonalEdgeStyle;rounded=0;orthogonalLoop=1;jettySize=auto;html=1;exitX=1;exitY=0.5;exitDx=0;exitDy=0;entryX=0;entryY=0.5;entryDx=0;entryDy=0;" edge="1" parent="1" source="nv-TkFWbTfWB4gyP5LMb-2" target="D4qjIRYr9ggsZmWQDk_U-31">
          <mxGeometry relative="1" as="geometry">
            <Array as="points">
              <mxPoint x="1910" y="1900" />
              <mxPoint x="1910" y="1461" />
            </Array>
          </mxGeometry>
        </mxCell>
        <mxCell id="nv-TkFWbTfWB4gyP5LMb-16" style="edgeStyle=orthogonalEdgeStyle;rounded=0;orthogonalLoop=1;jettySize=auto;html=1;exitX=1;exitY=0.5;exitDx=0;exitDy=0;entryX=0;entryY=0.5;entryDx=0;entryDy=0;" edge="1" parent="1" source="JGt1HLMFAKdLXa0e5AWq-42" target="D4qjIRYr9ggsZmWQDk_U-31">
          <mxGeometry relative="1" as="geometry">
            <Array as="points">
              <mxPoint x="1910" y="1100" />
              <mxPoint x="1910" y="1461" />
            </Array>
          </mxGeometry>
        </mxCell>
        <mxCell id="D4qjIRYr9ggsZmWQDk_U-111" style="edgeStyle=orthogonalEdgeStyle;rounded=0;orthogonalLoop=1;jettySize=auto;html=1;exitX=1;exitY=0.5;exitDx=0;exitDy=0;fillColor=#f8cecc;strokeColor=#b85450;strokeWidth=3;" parent="1" source="JGt1HLMFAKdLXa0e5AWq-58" target="D4qjIRYr9ggsZmWQDk_U-31" edge="1">
          <mxGeometry relative="1" as="geometry" />
        </mxCell>
      </root>
    </mxGraphModel>
  </diagram>
</mxfile>
